<mxfile host="Electron" modified="2024-02-13T01:52:16.106Z" agent="Mozilla/5.0 (Macintosh; Intel Mac OS X 10_15_7) AppleWebKit/537.36 (KHTML, like Gecko) draw.io/23.0.2 Chrome/120.0.6099.109 Electron/28.1.0 Safari/537.36" etag="SbSGI3l-ZC7DckdwH2jK" version="23.0.2" type="device" pages="3">
  <diagram name="物理内存管理" id="bZm6AAoV1MQ4xdPfTZnK">
    <mxGraphModel dx="2210" dy="2239" grid="1" gridSize="10" guides="1" tooltips="1" connect="1" arrows="1" fold="1" page="1" pageScale="1" pageWidth="827" pageHeight="1169" math="0" shadow="0">
      <root>
        <mxCell id="0" />
        <mxCell id="1" parent="0" />
        <mxCell id="DG_kzGb1HsHbo4tiTe6T-4" value="" style="rounded=0;whiteSpace=wrap;html=1;fontFamily=Helvetica;fontSize=11;fontColor=default;" parent="1" vertex="1">
          <mxGeometry x="-14" y="-300" width="1220" height="640" as="geometry" />
        </mxCell>
        <mxCell id="DG_kzGb1HsHbo4tiTe6T-5" value="zone" style="rounded=1;whiteSpace=wrap;html=1;verticalAlign=top;absoluteArcSize=1;fillColor=#d5e8d4;strokeColor=#82b366;" parent="1" vertex="1">
          <mxGeometry x="220" y="105" width="210" height="110" as="geometry" />
        </mxCell>
        <mxCell id="DG_kzGb1HsHbo4tiTe6T-6" value="unsigned long zone_start_pfn;" style="rounded=0;whiteSpace=wrap;html=1;" parent="1" vertex="1">
          <mxGeometry x="230" y="135" width="190" height="30" as="geometry" />
        </mxCell>
        <mxCell id="DG_kzGb1HsHbo4tiTe6T-7" value="struct free_area free_area[MAX_ORDER]" style="rounded=0;whiteSpace=wrap;html=1;" parent="1" vertex="1">
          <mxGeometry x="230" y="165" width="190" height="40" as="geometry" />
        </mxCell>
        <mxCell id="DG_kzGb1HsHbo4tiTe6T-8" value="page" style="rounded=1;whiteSpace=wrap;html=1;verticalAlign=top;absoluteArcSize=1;fillColor=#ffcc99;strokeColor=#36393d;" parent="1" vertex="1">
          <mxGeometry x="707" y="-270" width="186" height="100" as="geometry" />
        </mxCell>
        <mxCell id="DG_kzGb1HsHbo4tiTe6T-9" value="unsigned long flags;" style="rounded=0;whiteSpace=wrap;html=1;" parent="1" vertex="1">
          <mxGeometry x="717" y="-240" width="166" height="30" as="geometry" />
        </mxCell>
        <mxCell id="DG_kzGb1HsHbo4tiTe6T-10" value="..." style="rounded=0;whiteSpace=wrap;html=1;" parent="1" vertex="1">
          <mxGeometry x="717" y="-210" width="166" height="30" as="geometry" />
        </mxCell>
        <mxCell id="DG_kzGb1HsHbo4tiTe6T-11" value="free_area" style="rounded=1;whiteSpace=wrap;html=1;verticalAlign=top;absoluteArcSize=1;fillColor=#ffe6cc;strokeColor=#d79b00;" parent="1" vertex="1">
          <mxGeometry x="620" y="32.75" width="240" height="125" as="geometry" />
        </mxCell>
        <mxCell id="DG_kzGb1HsHbo4tiTe6T-12" style="shape=connector;rounded=1;orthogonalLoop=1;jettySize=auto;html=1;exitX=1;exitY=0.5;exitDx=0;exitDy=0;entryX=0;entryY=0.5;entryDx=0;entryDy=0;labelBackgroundColor=default;strokeColor=default;align=center;verticalAlign=middle;fontFamily=Helvetica;fontSize=11;fontColor=default;endArrow=classic;" parent="1" source="DG_kzGb1HsHbo4tiTe6T-14" target="DG_kzGb1HsHbo4tiTe6T-56" edge="1">
          <mxGeometry relative="1" as="geometry" />
        </mxCell>
        <mxCell id="DG_kzGb1HsHbo4tiTe6T-13" style="shape=connector;rounded=1;orthogonalLoop=1;jettySize=auto;html=1;exitX=1;exitY=0.5;exitDx=0;exitDy=0;entryX=0;entryY=0.5;entryDx=0;entryDy=0;labelBackgroundColor=default;strokeColor=default;align=center;verticalAlign=middle;fontFamily=Helvetica;fontSize=11;fontColor=default;endArrow=classic;" parent="1" source="DG_kzGb1HsHbo4tiTe6T-14" target="DG_kzGb1HsHbo4tiTe6T-63" edge="1">
          <mxGeometry relative="1" as="geometry" />
        </mxCell>
        <mxCell id="DG_kzGb1HsHbo4tiTe6T-14" value="struct list_head free_list[MIGRATE_TYPES];" style="rounded=0;whiteSpace=wrap;html=1;" parent="1" vertex="1">
          <mxGeometry x="630" y="67.75" width="220" height="40" as="geometry" />
        </mxCell>
        <mxCell id="DG_kzGb1HsHbo4tiTe6T-15" value="unsignedlong nr_free;" style="rounded=0;whiteSpace=wrap;html=1;" parent="1" vertex="1">
          <mxGeometry x="630" y="107.75" width="220" height="40" as="geometry" />
        </mxCell>
        <mxCell id="DG_kzGb1HsHbo4tiTe6T-16" value="" style="rounded=0;whiteSpace=wrap;html=1;fillColor=#e1d5e7;strokeColor=#9673a6;" parent="1" vertex="1">
          <mxGeometry x="401" y="-190" width="30" height="20" as="geometry" />
        </mxCell>
        <mxCell id="DG_kzGb1HsHbo4tiTe6T-17" value="" style="rounded=0;whiteSpace=wrap;html=1;fillColor=#e1d5e7;strokeColor=#9673a6;" parent="1" vertex="1">
          <mxGeometry x="431" y="-190" width="30" height="20" as="geometry" />
        </mxCell>
        <mxCell id="DG_kzGb1HsHbo4tiTe6T-18" style="edgeStyle=orthogonalEdgeStyle;rounded=1;orthogonalLoop=1;jettySize=auto;html=1;exitX=0.5;exitY=0;exitDx=0;exitDy=0;entryX=0;entryY=0.5;entryDx=0;entryDy=0;curved=0;" parent="1" source="DG_kzGb1HsHbo4tiTe6T-21" target="DG_kzGb1HsHbo4tiTe6T-8" edge="1">
          <mxGeometry relative="1" as="geometry">
            <mxPoint x="881" y="200" as="sourcePoint" />
          </mxGeometry>
        </mxCell>
        <mxCell id="DG_kzGb1HsHbo4tiTe6T-19" value="" style="rounded=0;whiteSpace=wrap;html=1;fillColor=#e1d5e7;strokeColor=#9673a6;" parent="1" vertex="1">
          <mxGeometry x="461" y="-190" width="30" height="20" as="geometry" />
        </mxCell>
        <mxCell id="DG_kzGb1HsHbo4tiTe6T-20" value="" style="rounded=0;whiteSpace=wrap;html=1;fillColor=#e1d5e7;strokeColor=#9673a6;" parent="1" vertex="1">
          <mxGeometry x="491" y="-190" width="30" height="20" as="geometry" />
        </mxCell>
        <mxCell id="DG_kzGb1HsHbo4tiTe6T-21" value="" style="rounded=0;whiteSpace=wrap;html=1;fillColor=#e1d5e7;strokeColor=#9673a6;" parent="1" vertex="1">
          <mxGeometry x="521" y="-190" width="30" height="20" as="geometry" />
        </mxCell>
        <mxCell id="DG_kzGb1HsHbo4tiTe6T-22" value="..." style="rounded=0;whiteSpace=wrap;html=1;fillColor=#e1d5e7;strokeColor=#9673a6;" parent="1" vertex="1">
          <mxGeometry x="551" y="-190" width="30" height="20" as="geometry" />
        </mxCell>
        <mxCell id="DG_kzGb1HsHbo4tiTe6T-23" value="" style="rounded=0;whiteSpace=wrap;html=1;fillColor=#e1d5e7;strokeColor=#9673a6;" parent="1" vertex="1">
          <mxGeometry x="581" y="-190" width="30" height="20" as="geometry" />
        </mxCell>
        <mxCell id="DG_kzGb1HsHbo4tiTe6T-24" value="" style="rounded=0;whiteSpace=wrap;html=1;fillColor=#e1d5e7;strokeColor=#9673a6;" parent="1" vertex="1">
          <mxGeometry x="611" y="-190" width="30" height="20" as="geometry" />
        </mxCell>
        <mxCell id="DG_kzGb1HsHbo4tiTe6T-25" value="" style="shape=curlyBracket;whiteSpace=wrap;html=1;rounded=1;flipH=1;labelPosition=right;verticalLabelPosition=middle;align=left;verticalAlign=middle;fontFamily=Helvetica;fontSize=11;fontColor=default;direction=north;" parent="1" vertex="1">
          <mxGeometry x="401" y="-168" width="240" height="20" as="geometry" />
        </mxCell>
        <mxCell id="DG_kzGb1HsHbo4tiTe6T-26" value="struct page数组" style="text;html=1;align=center;verticalAlign=middle;resizable=0;points=[];autosize=1;strokeColor=none;fillColor=none;fontSize=11;fontFamily=Helvetica;fontColor=default;fontStyle=1" parent="1" vertex="1">
          <mxGeometry x="471" y="-159" width="100" height="30" as="geometry" />
        </mxCell>
        <mxCell id="DG_kzGb1HsHbo4tiTe6T-27" value="ZONE_DMA" style="text;html=1;align=left;verticalAlign=middle;resizable=0;points=[];autosize=1;strokeColor=none;fillColor=none;fontSize=11;fontFamily=Helvetica;fontColor=default;" parent="1" vertex="1">
          <mxGeometry x="80" y="80" width="80" height="30" as="geometry" />
        </mxCell>
        <mxCell id="DG_kzGb1HsHbo4tiTe6T-30" value="0" style="rounded=0;whiteSpace=wrap;html=1;fontFamily=Helvetica;fontSize=11;fontColor=default;" parent="1" vertex="1">
          <mxGeometry x="483" y="80" width="90" height="30" as="geometry" />
        </mxCell>
        <mxCell id="DG_kzGb1HsHbo4tiTe6T-31" value="1" style="rounded=0;whiteSpace=wrap;html=1;fontFamily=Helvetica;fontSize=11;fontColor=default;" parent="1" vertex="1">
          <mxGeometry x="483" y="110" width="90" height="30" as="geometry" />
        </mxCell>
        <mxCell id="DG_kzGb1HsHbo4tiTe6T-32" style="edgeStyle=orthogonalEdgeStyle;shape=connector;curved=0;rounded=1;orthogonalLoop=1;jettySize=auto;html=1;exitX=1;exitY=0.5;exitDx=0;exitDy=0;entryX=0;entryY=0.5;entryDx=0;entryDy=0;labelBackgroundColor=default;strokeColor=default;align=center;verticalAlign=middle;fontFamily=Helvetica;fontSize=11;fontColor=default;endArrow=classic;" parent="1" source="DG_kzGb1HsHbo4tiTe6T-30" target="DG_kzGb1HsHbo4tiTe6T-11" edge="1">
          <mxGeometry relative="1" as="geometry" />
        </mxCell>
        <mxCell id="DG_kzGb1HsHbo4tiTe6T-33" value="2" style="rounded=0;whiteSpace=wrap;html=1;fontFamily=Helvetica;fontSize=11;fontColor=default;" parent="1" vertex="1">
          <mxGeometry x="483" y="140" width="90" height="30" as="geometry" />
        </mxCell>
        <mxCell id="DG_kzGb1HsHbo4tiTe6T-34" value="3" style="rounded=0;whiteSpace=wrap;html=1;fontFamily=Helvetica;fontSize=11;fontColor=default;" parent="1" vertex="1">
          <mxGeometry x="483" y="170" width="90" height="30" as="geometry" />
        </mxCell>
        <mxCell id="tWoqBZObjqT6N3CwKkqe-29" style="edgeStyle=orthogonalEdgeStyle;shape=connector;curved=0;rounded=1;orthogonalLoop=1;jettySize=auto;html=1;exitX=1;exitY=0.5;exitDx=0;exitDy=0;entryX=0;entryY=0.5;entryDx=0;entryDy=0;labelBackgroundColor=default;strokeColor=default;align=center;verticalAlign=middle;fontFamily=Helvetica;fontSize=11;fontColor=default;endArrow=classic;" parent="1" source="DG_kzGb1HsHbo4tiTe6T-31" target="tWoqBZObjqT6N3CwKkqe-1" edge="1">
          <mxGeometry relative="1" as="geometry" />
        </mxCell>
        <mxCell id="DG_kzGb1HsHbo4tiTe6T-35" value="4" style="rounded=0;whiteSpace=wrap;html=1;fontFamily=Helvetica;fontSize=11;fontColor=default;" parent="1" vertex="1">
          <mxGeometry x="483" y="200" width="90" height="30" as="geometry" />
        </mxCell>
        <mxCell id="DG_kzGb1HsHbo4tiTe6T-36" value="MAX_ORDER-1" style="rounded=0;whiteSpace=wrap;html=1;fontFamily=Helvetica;fontSize=11;fontColor=default;" parent="1" vertex="1">
          <mxGeometry x="483" y="260" width="90" height="30" as="geometry" />
        </mxCell>
        <mxCell id="DG_kzGb1HsHbo4tiTe6T-37" value="..." style="rounded=0;whiteSpace=wrap;html=1;fontFamily=Helvetica;fontSize=11;fontColor=default;" parent="1" vertex="1">
          <mxGeometry x="483" y="230" width="90" height="30" as="geometry" />
        </mxCell>
        <mxCell id="DG_kzGb1HsHbo4tiTe6T-38" value="" style="shape=curlyBracket;whiteSpace=wrap;html=1;rounded=1;labelPosition=left;verticalLabelPosition=middle;align=right;verticalAlign=middle;fontFamily=Helvetica;fontSize=11;fontColor=default;" parent="1" vertex="1">
          <mxGeometry x="462" y="80" width="20" height="210" as="geometry" />
        </mxCell>
        <mxCell id="DG_kzGb1HsHbo4tiTe6T-39" style="edgeStyle=orthogonalEdgeStyle;shape=connector;rounded=1;orthogonalLoop=1;jettySize=auto;html=1;exitX=1;exitY=0.5;exitDx=0;exitDy=0;entryX=0.1;entryY=0.5;entryDx=0;entryDy=0;entryPerimeter=0;labelBackgroundColor=default;strokeColor=default;align=center;verticalAlign=middle;fontFamily=Helvetica;fontSize=11;fontColor=default;endArrow=classic;" parent="1" source="DG_kzGb1HsHbo4tiTe6T-7" target="DG_kzGb1HsHbo4tiTe6T-38" edge="1">
          <mxGeometry relative="1" as="geometry" />
        </mxCell>
        <mxCell id="DG_kzGb1HsHbo4tiTe6T-40" style="shape=connector;rounded=1;orthogonalLoop=1;jettySize=auto;html=1;exitX=1;exitY=0.5;exitDx=0;exitDy=0;entryX=0;entryY=0.5;entryDx=0;entryDy=0;labelBackgroundColor=default;strokeColor=default;align=center;verticalAlign=middle;fontFamily=Helvetica;fontSize=11;fontColor=default;endArrow=classic;" parent="1" source="DG_kzGb1HsHbo4tiTe6T-14" target="DG_kzGb1HsHbo4tiTe6T-43" edge="1">
          <mxGeometry relative="1" as="geometry">
            <mxPoint x="898" y="87.75" as="targetPoint" />
          </mxGeometry>
        </mxCell>
        <mxCell id="DG_kzGb1HsHbo4tiTe6T-41" style="edgeStyle=orthogonalEdgeStyle;shape=connector;rounded=1;orthogonalLoop=1;jettySize=auto;html=1;exitX=0.5;exitY=0;exitDx=0;exitDy=0;entryX=0.5;entryY=1;entryDx=0;entryDy=0;labelBackgroundColor=default;strokeColor=default;align=center;verticalAlign=middle;fontFamily=Helvetica;fontSize=11;fontColor=default;endArrow=classic;" parent="1" source="DG_kzGb1HsHbo4tiTe6T-51" target="DG_kzGb1HsHbo4tiTe6T-8" edge="1">
          <mxGeometry relative="1" as="geometry" />
        </mxCell>
        <mxCell id="DG_kzGb1HsHbo4tiTe6T-42" style="edgeStyle=orthogonalEdgeStyle;shape=connector;curved=0;rounded=1;orthogonalLoop=1;jettySize=auto;html=1;exitX=1;exitY=0.5;exitDx=0;exitDy=0;entryX=0;entryY=0.5;entryDx=0;entryDy=0;labelBackgroundColor=default;strokeColor=default;align=center;verticalAlign=middle;fontFamily=Helvetica;fontSize=11;fontColor=default;endArrow=classic;" parent="1" source="DG_kzGb1HsHbo4tiTe6T-43" target="DG_kzGb1HsHbo4tiTe6T-51" edge="1">
          <mxGeometry relative="1" as="geometry" />
        </mxCell>
        <mxCell id="DG_kzGb1HsHbo4tiTe6T-43" value="" style="rounded=0;whiteSpace=wrap;html=1;fontFamily=Helvetica;fontSize=11;fillColor=#fff2cc;strokeColor=#d6b656;" parent="1" vertex="1">
          <mxGeometry x="903" y="32.75" width="40" height="23.5" as="geometry" />
        </mxCell>
        <mxCell id="DG_kzGb1HsHbo4tiTe6T-44" value="" style="rounded=1;whiteSpace=wrap;html=1;verticalAlign=top;absoluteArcSize=1;fillColor=#dae8fc;strokeColor=#6c8ebf;" parent="1" vertex="1">
          <mxGeometry x="40" y="-80" width="210" height="70" as="geometry" />
        </mxCell>
        <mxCell id="DG_kzGb1HsHbo4tiTe6T-45" value="" style="rounded=1;whiteSpace=wrap;html=1;verticalAlign=top;absoluteArcSize=1;fillColor=#dae8fc;strokeColor=#6c8ebf;" parent="1" vertex="1">
          <mxGeometry x="50" y="-70" width="210" height="70" as="geometry" />
        </mxCell>
        <mxCell id="DG_kzGb1HsHbo4tiTe6T-46" value="" style="rounded=1;whiteSpace=wrap;html=1;verticalAlign=top;absoluteArcSize=1;fillColor=#dae8fc;strokeColor=#6c8ebf;" parent="1" vertex="1">
          <mxGeometry x="60" y="-60" width="210" height="70" as="geometry" />
        </mxCell>
        <mxCell id="DG_kzGb1HsHbo4tiTe6T-47" value="pg_data_t" style="rounded=1;whiteSpace=wrap;html=1;verticalAlign=top;absoluteArcSize=1;fillColor=#dae8fc;strokeColor=#6c8ebf;" parent="1" vertex="1">
          <mxGeometry x="70" y="-49" width="210" height="70" as="geometry" />
        </mxCell>
        <mxCell id="DG_kzGb1HsHbo4tiTe6T-48" style="edgeStyle=orthogonalEdgeStyle;shape=connector;curved=0;rounded=1;orthogonalLoop=1;jettySize=auto;html=1;exitX=0.5;exitY=1;exitDx=0;exitDy=0;entryX=0;entryY=0.5;entryDx=0;entryDy=0;labelBackgroundColor=default;strokeColor=default;align=center;verticalAlign=middle;fontFamily=Helvetica;fontSize=11;fontColor=default;endArrow=classic;" parent="1" source="DG_kzGb1HsHbo4tiTe6T-49" target="DG_kzGb1HsHbo4tiTe6T-5" edge="1">
          <mxGeometry relative="1" as="geometry" />
        </mxCell>
        <mxCell id="DG_kzGb1HsHbo4tiTe6T-49" value="struct zone node_zones[];" style="rounded=0;whiteSpace=wrap;html=1;" parent="1" vertex="1">
          <mxGeometry x="80" y="-19" width="190" height="30" as="geometry" />
        </mxCell>
        <mxCell id="DG_kzGb1HsHbo4tiTe6T-50" style="edgeStyle=orthogonalEdgeStyle;shape=connector;curved=0;rounded=1;orthogonalLoop=1;jettySize=auto;html=1;exitX=1;exitY=0.5;exitDx=0;exitDy=0;entryX=0;entryY=0.5;entryDx=0;entryDy=0;labelBackgroundColor=default;strokeColor=default;align=center;verticalAlign=middle;fontFamily=Helvetica;fontSize=11;fontColor=default;endArrow=classic;" parent="1" source="DG_kzGb1HsHbo4tiTe6T-51" target="DG_kzGb1HsHbo4tiTe6T-53" edge="1">
          <mxGeometry relative="1" as="geometry" />
        </mxCell>
        <mxCell id="DG_kzGb1HsHbo4tiTe6T-51" value="" style="rounded=0;whiteSpace=wrap;html=1;fontFamily=Helvetica;fontSize=11;fillColor=#fff2cc;strokeColor=#d6b656;" parent="1" vertex="1">
          <mxGeometry x="973" y="32.75" width="40" height="23.5" as="geometry" />
        </mxCell>
        <mxCell id="DG_kzGb1HsHbo4tiTe6T-52" style="edgeStyle=orthogonalEdgeStyle;shape=connector;curved=0;rounded=1;orthogonalLoop=1;jettySize=auto;html=1;exitX=1;exitY=0.5;exitDx=0;exitDy=0;entryX=0;entryY=0.5;entryDx=0;entryDy=0;labelBackgroundColor=default;strokeColor=default;align=center;verticalAlign=middle;fontFamily=Helvetica;fontSize=11;fontColor=default;endArrow=classic;" parent="1" source="DG_kzGb1HsHbo4tiTe6T-53" target="DG_kzGb1HsHbo4tiTe6T-54" edge="1">
          <mxGeometry relative="1" as="geometry" />
        </mxCell>
        <mxCell id="DG_kzGb1HsHbo4tiTe6T-53" value="" style="rounded=0;whiteSpace=wrap;html=1;fontFamily=Helvetica;fontSize=11;fillColor=#fff2cc;strokeColor=#d6b656;" parent="1" vertex="1">
          <mxGeometry x="1043" y="32.75" width="40" height="23.5" as="geometry" />
        </mxCell>
        <mxCell id="DG_kzGb1HsHbo4tiTe6T-54" value="" style="rounded=0;whiteSpace=wrap;html=1;fontFamily=Helvetica;fontSize=11;fillColor=#fff2cc;strokeColor=#d6b656;" parent="1" vertex="1">
          <mxGeometry x="1113" y="32.75" width="40" height="23.5" as="geometry" />
        </mxCell>
        <mxCell id="DG_kzGb1HsHbo4tiTe6T-55" style="edgeStyle=orthogonalEdgeStyle;shape=connector;curved=0;rounded=1;orthogonalLoop=1;jettySize=auto;html=1;exitX=1;exitY=0.5;exitDx=0;exitDy=0;entryX=0;entryY=0.5;entryDx=0;entryDy=0;labelBackgroundColor=default;strokeColor=default;align=center;verticalAlign=middle;fontFamily=Helvetica;fontSize=11;fontColor=default;endArrow=classic;" parent="1" source="DG_kzGb1HsHbo4tiTe6T-56" target="DG_kzGb1HsHbo4tiTe6T-58" edge="1">
          <mxGeometry relative="1" as="geometry" />
        </mxCell>
        <mxCell id="DG_kzGb1HsHbo4tiTe6T-56" value="" style="rounded=0;whiteSpace=wrap;html=1;fontFamily=Helvetica;fontSize=11;fillColor=#fff2cc;strokeColor=#d6b656;" parent="1" vertex="1">
          <mxGeometry x="903" y="77.5" width="40" height="20.5" as="geometry" />
        </mxCell>
        <mxCell id="DG_kzGb1HsHbo4tiTe6T-57" style="edgeStyle=orthogonalEdgeStyle;shape=connector;curved=0;rounded=1;orthogonalLoop=1;jettySize=auto;html=1;exitX=1;exitY=0.5;exitDx=0;exitDy=0;entryX=0;entryY=0.5;entryDx=0;entryDy=0;labelBackgroundColor=default;strokeColor=default;align=center;verticalAlign=middle;fontFamily=Helvetica;fontSize=11;fontColor=default;endArrow=classic;" parent="1" source="DG_kzGb1HsHbo4tiTe6T-58" target="DG_kzGb1HsHbo4tiTe6T-60" edge="1">
          <mxGeometry relative="1" as="geometry" />
        </mxCell>
        <mxCell id="DG_kzGb1HsHbo4tiTe6T-58" value="" style="rounded=0;whiteSpace=wrap;html=1;fontFamily=Helvetica;fontSize=11;fillColor=#fff2cc;strokeColor=#d6b656;" parent="1" vertex="1">
          <mxGeometry x="973" y="77.5" width="40" height="20.5" as="geometry" />
        </mxCell>
        <mxCell id="DG_kzGb1HsHbo4tiTe6T-59" style="edgeStyle=orthogonalEdgeStyle;shape=connector;curved=0;rounded=1;orthogonalLoop=1;jettySize=auto;html=1;exitX=1;exitY=0.5;exitDx=0;exitDy=0;entryX=0;entryY=0.5;entryDx=0;entryDy=0;labelBackgroundColor=default;strokeColor=default;align=center;verticalAlign=middle;fontFamily=Helvetica;fontSize=11;fontColor=default;endArrow=classic;" parent="1" source="DG_kzGb1HsHbo4tiTe6T-60" target="DG_kzGb1HsHbo4tiTe6T-61" edge="1">
          <mxGeometry relative="1" as="geometry" />
        </mxCell>
        <mxCell id="DG_kzGb1HsHbo4tiTe6T-60" value="" style="rounded=0;whiteSpace=wrap;html=1;fontFamily=Helvetica;fontSize=11;fillColor=#fff2cc;strokeColor=#d6b656;" parent="1" vertex="1">
          <mxGeometry x="1043" y="77.5" width="40" height="20.5" as="geometry" />
        </mxCell>
        <mxCell id="DG_kzGb1HsHbo4tiTe6T-61" value="" style="rounded=0;whiteSpace=wrap;html=1;fontFamily=Helvetica;fontSize=11;fillColor=#fff2cc;strokeColor=#d6b656;" parent="1" vertex="1">
          <mxGeometry x="1113" y="77.5" width="40" height="20.5" as="geometry" />
        </mxCell>
        <mxCell id="DG_kzGb1HsHbo4tiTe6T-62" style="edgeStyle=orthogonalEdgeStyle;shape=connector;curved=0;rounded=1;orthogonalLoop=1;jettySize=auto;html=1;exitX=1;exitY=0.5;exitDx=0;exitDy=0;entryX=0;entryY=0.5;entryDx=0;entryDy=0;labelBackgroundColor=default;strokeColor=default;align=center;verticalAlign=middle;fontFamily=Helvetica;fontSize=11;fontColor=default;endArrow=classic;" parent="1" source="DG_kzGb1HsHbo4tiTe6T-63" target="DG_kzGb1HsHbo4tiTe6T-65" edge="1">
          <mxGeometry relative="1" as="geometry" />
        </mxCell>
        <mxCell id="DG_kzGb1HsHbo4tiTe6T-63" value="" style="rounded=0;whiteSpace=wrap;html=1;fontFamily=Helvetica;fontSize=11;fillColor=#fff2cc;strokeColor=#d6b656;" parent="1" vertex="1">
          <mxGeometry x="903" y="118.25" width="40" height="24.5" as="geometry" />
        </mxCell>
        <mxCell id="DG_kzGb1HsHbo4tiTe6T-64" style="edgeStyle=orthogonalEdgeStyle;shape=connector;curved=0;rounded=1;orthogonalLoop=1;jettySize=auto;html=1;exitX=1;exitY=0.5;exitDx=0;exitDy=0;entryX=0;entryY=0.5;entryDx=0;entryDy=0;labelBackgroundColor=default;strokeColor=default;align=center;verticalAlign=middle;fontFamily=Helvetica;fontSize=11;fontColor=default;endArrow=classic;" parent="1" source="DG_kzGb1HsHbo4tiTe6T-65" target="DG_kzGb1HsHbo4tiTe6T-67" edge="1">
          <mxGeometry relative="1" as="geometry" />
        </mxCell>
        <mxCell id="DG_kzGb1HsHbo4tiTe6T-65" value="" style="rounded=0;whiteSpace=wrap;html=1;fontFamily=Helvetica;fontSize=11;fillColor=#fff2cc;strokeColor=#d6b656;" parent="1" vertex="1">
          <mxGeometry x="973" y="118.25" width="40" height="24.5" as="geometry" />
        </mxCell>
        <mxCell id="DG_kzGb1HsHbo4tiTe6T-66" style="edgeStyle=orthogonalEdgeStyle;shape=connector;curved=0;rounded=1;orthogonalLoop=1;jettySize=auto;html=1;exitX=1;exitY=0.5;exitDx=0;exitDy=0;entryX=0;entryY=0.5;entryDx=0;entryDy=0;labelBackgroundColor=default;strokeColor=default;align=center;verticalAlign=middle;fontFamily=Helvetica;fontSize=11;fontColor=default;endArrow=classic;" parent="1" source="DG_kzGb1HsHbo4tiTe6T-67" target="DG_kzGb1HsHbo4tiTe6T-68" edge="1">
          <mxGeometry relative="1" as="geometry" />
        </mxCell>
        <mxCell id="DG_kzGb1HsHbo4tiTe6T-67" value="" style="rounded=0;whiteSpace=wrap;html=1;fontFamily=Helvetica;fontSize=11;fillColor=#fff2cc;strokeColor=#d6b656;" parent="1" vertex="1">
          <mxGeometry x="1043" y="118.25" width="40" height="24.5" as="geometry" />
        </mxCell>
        <mxCell id="DG_kzGb1HsHbo4tiTe6T-68" value="" style="rounded=0;whiteSpace=wrap;html=1;fontFamily=Helvetica;fontSize=11;fillColor=#fff2cc;strokeColor=#d6b656;" parent="1" vertex="1">
          <mxGeometry x="1113" y="118.25" width="40" height="24.5" as="geometry" />
        </mxCell>
        <mxCell id="DG_kzGb1HsHbo4tiTe6T-69" value="ZONE_NORMAL" style="text;html=1;align=left;verticalAlign=middle;resizable=0;points=[];autosize=1;strokeColor=none;fillColor=none;fontSize=11;fontFamily=Helvetica;fontColor=default;" parent="1" vertex="1">
          <mxGeometry x="80" y="97.5" width="110" height="30" as="geometry" />
        </mxCell>
        <mxCell id="DG_kzGb1HsHbo4tiTe6T-70" value="ZONE_MOVABLE" style="text;html=1;align=left;verticalAlign=middle;resizable=0;points=[];autosize=1;strokeColor=none;fillColor=none;fontSize=11;fontFamily=Helvetica;fontColor=default;" parent="1" vertex="1">
          <mxGeometry x="80" y="116" width="110" height="30" as="geometry" />
        </mxCell>
        <mxCell id="DG_kzGb1HsHbo4tiTe6T-71" value="..." style="text;html=1;align=left;verticalAlign=middle;resizable=0;points=[];autosize=1;strokeColor=none;fillColor=none;fontSize=11;fontFamily=Helvetica;fontColor=default;" parent="1" vertex="1">
          <mxGeometry x="80" y="135" width="30" height="30" as="geometry" />
        </mxCell>
        <mxCell id="DG_kzGb1HsHbo4tiTe6T-73" value="mem_map" style="text;html=1;strokeColor=none;fillColor=none;align=center;verticalAlign=middle;whiteSpace=wrap;rounded=0;fontSize=11;fontFamily=Helvetica;fontColor=default;" parent="1" vertex="1">
          <mxGeometry x="341" y="-190" width="60" height="20" as="geometry" />
        </mxCell>
        <mxCell id="tWoqBZObjqT6N3CwKkqe-1" value="free_area" style="rounded=1;whiteSpace=wrap;html=1;verticalAlign=top;absoluteArcSize=1;fillColor=#ffe6cc;strokeColor=#d79b00;" parent="1" vertex="1">
          <mxGeometry x="620" y="180" width="240" height="125" as="geometry" />
        </mxCell>
        <mxCell id="tWoqBZObjqT6N3CwKkqe-2" style="shape=connector;rounded=1;orthogonalLoop=1;jettySize=auto;html=1;exitX=1;exitY=0.5;exitDx=0;exitDy=0;entryX=0;entryY=0.5;entryDx=0;entryDy=0;labelBackgroundColor=default;strokeColor=default;align=center;verticalAlign=middle;fontFamily=Helvetica;fontSize=11;fontColor=default;endArrow=classic;" parent="1" source="tWoqBZObjqT6N3CwKkqe-4" target="tWoqBZObjqT6N3CwKkqe-15" edge="1">
          <mxGeometry relative="1" as="geometry" />
        </mxCell>
        <mxCell id="tWoqBZObjqT6N3CwKkqe-3" style="shape=connector;rounded=1;orthogonalLoop=1;jettySize=auto;html=1;exitX=1;exitY=0.5;exitDx=0;exitDy=0;entryX=0;entryY=0.5;entryDx=0;entryDy=0;labelBackgroundColor=default;strokeColor=default;align=center;verticalAlign=middle;fontFamily=Helvetica;fontSize=11;fontColor=default;endArrow=classic;" parent="1" source="tWoqBZObjqT6N3CwKkqe-4" target="tWoqBZObjqT6N3CwKkqe-22" edge="1">
          <mxGeometry relative="1" as="geometry" />
        </mxCell>
        <mxCell id="tWoqBZObjqT6N3CwKkqe-4" value="struct list_head free_list[MIGRATE_TYPES];" style="rounded=0;whiteSpace=wrap;html=1;" parent="1" vertex="1">
          <mxGeometry x="630" y="215" width="220" height="40" as="geometry" />
        </mxCell>
        <mxCell id="tWoqBZObjqT6N3CwKkqe-5" value="unsignedlong nr_free;" style="rounded=0;whiteSpace=wrap;html=1;" parent="1" vertex="1">
          <mxGeometry x="630" y="255" width="220" height="40" as="geometry" />
        </mxCell>
        <mxCell id="tWoqBZObjqT6N3CwKkqe-6" style="shape=connector;rounded=1;orthogonalLoop=1;jettySize=auto;html=1;exitX=1;exitY=0.5;exitDx=0;exitDy=0;entryX=0;entryY=0.5;entryDx=0;entryDy=0;labelBackgroundColor=default;strokeColor=default;align=center;verticalAlign=middle;fontFamily=Helvetica;fontSize=11;fontColor=default;endArrow=classic;" parent="1" source="tWoqBZObjqT6N3CwKkqe-4" target="tWoqBZObjqT6N3CwKkqe-8" edge="1">
          <mxGeometry relative="1" as="geometry">
            <mxPoint x="898" y="235" as="targetPoint" />
          </mxGeometry>
        </mxCell>
        <mxCell id="tWoqBZObjqT6N3CwKkqe-8" value="" style="rounded=0;whiteSpace=wrap;html=1;fontFamily=Helvetica;fontSize=11;fillColor=#fff2cc;strokeColor=#d6b656;" parent="1" vertex="1">
          <mxGeometry x="903" y="180" width="40" height="23.5" as="geometry" />
        </mxCell>
        <mxCell id="tWoqBZObjqT6N3CwKkqe-9" style="edgeStyle=orthogonalEdgeStyle;shape=connector;curved=0;rounded=1;orthogonalLoop=1;jettySize=auto;html=1;exitX=1;exitY=0.5;exitDx=0;exitDy=0;entryX=0;entryY=0.5;entryDx=0;entryDy=0;labelBackgroundColor=default;strokeColor=default;align=center;verticalAlign=middle;fontFamily=Helvetica;fontSize=11;fontColor=default;endArrow=classic;" parent="1" source="tWoqBZObjqT6N3CwKkqe-10" target="tWoqBZObjqT6N3CwKkqe-12" edge="1">
          <mxGeometry relative="1" as="geometry" />
        </mxCell>
        <mxCell id="tWoqBZObjqT6N3CwKkqe-10" value="" style="rounded=0;whiteSpace=wrap;html=1;fontFamily=Helvetica;fontSize=11;fillColor=#fff2cc;strokeColor=#d6b656;" parent="1" vertex="1">
          <mxGeometry x="943" y="180" width="40" height="23.5" as="geometry" />
        </mxCell>
        <mxCell id="tWoqBZObjqT6N3CwKkqe-12" value="" style="rounded=0;whiteSpace=wrap;html=1;fontFamily=Helvetica;fontSize=11;fillColor=#fff2cc;strokeColor=#d6b656;" parent="1" vertex="1">
          <mxGeometry x="1011" y="180" width="40" height="23.5" as="geometry" />
        </mxCell>
        <mxCell id="tWoqBZObjqT6N3CwKkqe-13" value="" style="rounded=0;whiteSpace=wrap;html=1;fontFamily=Helvetica;fontSize=11;fillColor=#fff2cc;strokeColor=#d6b656;" parent="1" vertex="1">
          <mxGeometry x="1051" y="180" width="40" height="23.5" as="geometry" />
        </mxCell>
        <mxCell id="tWoqBZObjqT6N3CwKkqe-15" value="" style="rounded=0;whiteSpace=wrap;html=1;fontFamily=Helvetica;fontSize=11;fillColor=#fff2cc;strokeColor=#d6b656;" parent="1" vertex="1">
          <mxGeometry x="903" y="224.75" width="40" height="20.5" as="geometry" />
        </mxCell>
        <mxCell id="tWoqBZObjqT6N3CwKkqe-16" style="edgeStyle=orthogonalEdgeStyle;shape=connector;curved=0;rounded=1;orthogonalLoop=1;jettySize=auto;html=1;exitX=1;exitY=0.5;exitDx=0;exitDy=0;entryX=0;entryY=0.5;entryDx=0;entryDy=0;labelBackgroundColor=default;strokeColor=default;align=center;verticalAlign=middle;fontFamily=Helvetica;fontSize=11;fontColor=default;endArrow=classic;" parent="1" source="tWoqBZObjqT6N3CwKkqe-17" target="tWoqBZObjqT6N3CwKkqe-19" edge="1">
          <mxGeometry relative="1" as="geometry" />
        </mxCell>
        <mxCell id="tWoqBZObjqT6N3CwKkqe-17" value="" style="rounded=0;whiteSpace=wrap;html=1;fontFamily=Helvetica;fontSize=11;fillColor=#fff2cc;strokeColor=#d6b656;" parent="1" vertex="1">
          <mxGeometry x="943" y="224.75" width="40" height="20.5" as="geometry" />
        </mxCell>
        <mxCell id="tWoqBZObjqT6N3CwKkqe-19" value="" style="rounded=0;whiteSpace=wrap;html=1;fontFamily=Helvetica;fontSize=11;fillColor=#fff2cc;strokeColor=#d6b656;" parent="1" vertex="1">
          <mxGeometry x="1013" y="224.75" width="40" height="20.5" as="geometry" />
        </mxCell>
        <mxCell id="tWoqBZObjqT6N3CwKkqe-20" value="" style="rounded=0;whiteSpace=wrap;html=1;fontFamily=Helvetica;fontSize=11;fillColor=#fff2cc;strokeColor=#d6b656;" parent="1" vertex="1">
          <mxGeometry x="1053" y="224.75" width="40" height="20.5" as="geometry" />
        </mxCell>
        <mxCell id="tWoqBZObjqT6N3CwKkqe-22" value="" style="rounded=0;whiteSpace=wrap;html=1;fontFamily=Helvetica;fontSize=11;fillColor=#fff2cc;strokeColor=#d6b656;" parent="1" vertex="1">
          <mxGeometry x="903" y="265.5" width="40" height="24.5" as="geometry" />
        </mxCell>
        <mxCell id="tWoqBZObjqT6N3CwKkqe-23" style="edgeStyle=orthogonalEdgeStyle;shape=connector;curved=0;rounded=1;orthogonalLoop=1;jettySize=auto;html=1;exitX=1;exitY=0.5;exitDx=0;exitDy=0;entryX=0;entryY=0.5;entryDx=0;entryDy=0;labelBackgroundColor=default;strokeColor=default;align=center;verticalAlign=middle;fontFamily=Helvetica;fontSize=11;fontColor=default;endArrow=classic;" parent="1" source="tWoqBZObjqT6N3CwKkqe-24" target="tWoqBZObjqT6N3CwKkqe-26" edge="1">
          <mxGeometry relative="1" as="geometry" />
        </mxCell>
        <mxCell id="tWoqBZObjqT6N3CwKkqe-24" value="" style="rounded=0;whiteSpace=wrap;html=1;fontFamily=Helvetica;fontSize=11;fillColor=#fff2cc;strokeColor=#d6b656;" parent="1" vertex="1">
          <mxGeometry x="943" y="265.5" width="40" height="24.5" as="geometry" />
        </mxCell>
        <mxCell id="tWoqBZObjqT6N3CwKkqe-26" value="" style="rounded=0;whiteSpace=wrap;html=1;fontFamily=Helvetica;fontSize=11;fillColor=#fff2cc;strokeColor=#d6b656;" parent="1" vertex="1">
          <mxGeometry x="1013" y="265.5" width="40" height="24.5" as="geometry" />
        </mxCell>
        <mxCell id="tWoqBZObjqT6N3CwKkqe-27" value="" style="rounded=0;whiteSpace=wrap;html=1;fontFamily=Helvetica;fontSize=11;fillColor=#fff2cc;strokeColor=#d6b656;" parent="1" vertex="1">
          <mxGeometry x="1053" y="265.5" width="40" height="24.5" as="geometry" />
        </mxCell>
        <mxCell id="tWoqBZObjqT6N3CwKkqe-28" value="空闲页面链表" style="text;html=1;strokeColor=none;fillColor=none;align=center;verticalAlign=middle;whiteSpace=wrap;rounded=0;fontSize=11;fontFamily=Helvetica;fontColor=default;" parent="1" vertex="1">
          <mxGeometry x="980" y="307.5" width="70" height="30" as="geometry" />
        </mxCell>
      </root>
    </mxGraphModel>
  </diagram>
  <diagram id="V3_UN_a4B6vTCJUvI1mB" name="slub流程">
    <mxGraphModel dx="1383" dy="1070" grid="1" gridSize="10" guides="1" tooltips="1" connect="1" arrows="1" fold="1" page="1" pageScale="1" pageWidth="827" pageHeight="1169" math="0" shadow="0">
      <root>
        <mxCell id="0" />
        <mxCell id="1" parent="0" />
        <mxCell id="fTsqoePo69IkHv7tenj3-35" style="edgeStyle=orthogonalEdgeStyle;rounded=1;orthogonalLoop=1;jettySize=auto;html=1;exitX=0.25;exitY=1;exitDx=0;exitDy=0;entryX=0;entryY=0.5;entryDx=0;entryDy=0;" parent="1" source="fTsqoePo69IkHv7tenj3-36" target="fTsqoePo69IkHv7tenj3-37" edge="1">
          <mxGeometry relative="1" as="geometry" />
        </mxCell>
        <mxCell id="fTsqoePo69IkHv7tenj3-36" value="kmem_cache_alloc" style="rounded=1;whiteSpace=wrap;html=1;" parent="1" vertex="1">
          <mxGeometry x="40" y="1760" width="140" height="40" as="geometry" />
        </mxCell>
        <mxCell id="fTsqoePo69IkHv7tenj3-39" style="edgeStyle=orthogonalEdgeStyle;rounded=1;orthogonalLoop=1;jettySize=auto;html=1;exitX=0.25;exitY=1;exitDx=0;exitDy=0;entryX=0;entryY=0.5;entryDx=0;entryDy=0;" parent="1" source="fTsqoePo69IkHv7tenj3-37" target="fTsqoePo69IkHv7tenj3-38" edge="1">
          <mxGeometry relative="1" as="geometry" />
        </mxCell>
        <mxCell id="fTsqoePo69IkHv7tenj3-37" value="slab_alloc" style="rounded=1;whiteSpace=wrap;html=1;" parent="1" vertex="1">
          <mxGeometry x="110" y="1820" width="130" height="40" as="geometry" />
        </mxCell>
        <mxCell id="nb7vk2UFu0yFhdqlse9p-10" style="edgeStyle=orthogonalEdgeStyle;shape=connector;rounded=1;orthogonalLoop=1;jettySize=auto;html=1;exitX=0.25;exitY=1;exitDx=0;exitDy=0;entryX=0;entryY=0.5;entryDx=0;entryDy=0;labelBackgroundColor=default;strokeColor=default;align=center;verticalAlign=middle;fontFamily=Helvetica;fontSize=11;fontColor=default;endArrow=classic;" parent="1" source="fTsqoePo69IkHv7tenj3-38" target="nb7vk2UFu0yFhdqlse9p-9" edge="1">
          <mxGeometry relative="1" as="geometry" />
        </mxCell>
        <mxCell id="nb7vk2UFu0yFhdqlse9p-12" style="edgeStyle=orthogonalEdgeStyle;shape=connector;rounded=1;orthogonalLoop=1;jettySize=auto;html=1;exitX=0.25;exitY=1;exitDx=0;exitDy=0;entryX=0;entryY=0.5;entryDx=0;entryDy=0;labelBackgroundColor=default;strokeColor=default;align=center;verticalAlign=middle;fontFamily=Helvetica;fontSize=11;fontColor=default;endArrow=classic;" parent="1" source="fTsqoePo69IkHv7tenj3-38" target="nb7vk2UFu0yFhdqlse9p-11" edge="1">
          <mxGeometry relative="1" as="geometry" />
        </mxCell>
        <mxCell id="nb7vk2UFu0yFhdqlse9p-14" style="edgeStyle=orthogonalEdgeStyle;shape=connector;rounded=1;orthogonalLoop=1;jettySize=auto;html=1;exitX=0.25;exitY=1;exitDx=0;exitDy=0;entryX=0;entryY=0.5;entryDx=0;entryDy=0;labelBackgroundColor=default;strokeColor=default;align=center;verticalAlign=middle;fontFamily=Helvetica;fontSize=11;fontColor=default;endArrow=classic;" parent="1" source="fTsqoePo69IkHv7tenj3-38" target="nb7vk2UFu0yFhdqlse9p-13" edge="1">
          <mxGeometry relative="1" as="geometry" />
        </mxCell>
        <mxCell id="fTsqoePo69IkHv7tenj3-38" value="slab_alloc_node" style="rounded=1;whiteSpace=wrap;html=1;" parent="1" vertex="1">
          <mxGeometry x="320" y="1640" width="130" height="40" as="geometry" />
        </mxCell>
        <mxCell id="nb7vk2UFu0yFhdqlse9p-9" value="slab_pre_alloc_hook" style="rounded=1;whiteSpace=wrap;html=1;" parent="1" vertex="1">
          <mxGeometry x="390" y="1700" width="130" height="40" as="geometry" />
        </mxCell>
        <mxCell id="nb7vk2UFu0yFhdqlse9p-11" value="slab_post_alloc_hook" style="rounded=1;whiteSpace=wrap;html=1;" parent="1" vertex="1">
          <mxGeometry x="390" y="1950" width="130" height="40" as="geometry" />
        </mxCell>
        <mxCell id="nb7vk2UFu0yFhdqlse9p-18" style="edgeStyle=orthogonalEdgeStyle;shape=connector;rounded=1;orthogonalLoop=1;jettySize=auto;html=1;exitX=0.25;exitY=1;exitDx=0;exitDy=0;entryX=0;entryY=0.5;entryDx=0;entryDy=0;labelBackgroundColor=default;strokeColor=default;align=center;verticalAlign=middle;fontFamily=Helvetica;fontSize=11;fontColor=default;endArrow=classic;" parent="1" source="nb7vk2UFu0yFhdqlse9p-13" target="nb7vk2UFu0yFhdqlse9p-15" edge="1">
          <mxGeometry relative="1" as="geometry" />
        </mxCell>
        <mxCell id="nb7vk2UFu0yFhdqlse9p-13" value="object = c-&amp;gt;freelist;" style="rounded=1;whiteSpace=wrap;html=1;" parent="1" vertex="1">
          <mxGeometry x="390" y="1760" width="130" height="40" as="geometry" />
        </mxCell>
        <mxCell id="nb7vk2UFu0yFhdqlse9p-20" style="edgeStyle=orthogonalEdgeStyle;shape=connector;rounded=1;orthogonalLoop=1;jettySize=auto;html=1;exitX=0.5;exitY=1;exitDx=0;exitDy=0;entryX=0;entryY=0.5;entryDx=0;entryDy=0;labelBackgroundColor=default;strokeColor=default;align=center;verticalAlign=middle;fontFamily=Helvetica;fontSize=11;fontColor=default;endArrow=classic;" parent="1" source="nb7vk2UFu0yFhdqlse9p-15" target="nb7vk2UFu0yFhdqlse9p-19" edge="1">
          <mxGeometry relative="1" as="geometry" />
        </mxCell>
        <mxCell id="nb7vk2UFu0yFhdqlse9p-90" style="edgeStyle=orthogonalEdgeStyle;shape=connector;rounded=1;orthogonalLoop=1;jettySize=auto;html=1;exitX=1;exitY=0.5;exitDx=0;exitDy=0;entryX=0;entryY=0.5;entryDx=0;entryDy=0;labelBackgroundColor=default;strokeColor=default;align=center;verticalAlign=middle;fontFamily=Helvetica;fontSize=11;fontColor=default;endArrow=classic;" parent="1" source="nb7vk2UFu0yFhdqlse9p-15" target="nb7vk2UFu0yFhdqlse9p-89" edge="1">
          <mxGeometry relative="1" as="geometry" />
        </mxCell>
        <mxCell id="nb7vk2UFu0yFhdqlse9p-15" value="!object || !page" style="rhombus;whiteSpace=wrap;html=1;fontFamily=Helvetica;fontSize=11;fontColor=default;" parent="1" vertex="1">
          <mxGeometry x="455" y="1820" width="100" height="40" as="geometry" />
        </mxCell>
        <mxCell id="nb7vk2UFu0yFhdqlse9p-25" style="edgeStyle=orthogonalEdgeStyle;shape=connector;rounded=1;orthogonalLoop=1;jettySize=auto;html=1;exitX=0.25;exitY=1;exitDx=0;exitDy=0;entryX=0;entryY=0.5;entryDx=0;entryDy=0;labelBackgroundColor=default;strokeColor=default;align=center;verticalAlign=middle;fontFamily=Helvetica;fontSize=11;fontColor=default;endArrow=classic;" parent="1" source="nb7vk2UFu0yFhdqlse9p-16" target="nb7vk2UFu0yFhdqlse9p-22" edge="1">
          <mxGeometry relative="1" as="geometry" />
        </mxCell>
        <mxCell id="nb7vk2UFu0yFhdqlse9p-26" style="edgeStyle=orthogonalEdgeStyle;shape=connector;rounded=1;orthogonalLoop=1;jettySize=auto;html=1;exitX=0.25;exitY=1;exitDx=0;exitDy=0;entryX=0;entryY=0.5;entryDx=0;entryDy=0;labelBackgroundColor=default;strokeColor=default;align=center;verticalAlign=middle;fontFamily=Helvetica;fontSize=11;fontColor=default;endArrow=classic;" parent="1" source="nb7vk2UFu0yFhdqlse9p-16" target="nb7vk2UFu0yFhdqlse9p-24" edge="1">
          <mxGeometry relative="1" as="geometry" />
        </mxCell>
        <mxCell id="nb7vk2UFu0yFhdqlse9p-27" style="edgeStyle=orthogonalEdgeStyle;shape=connector;rounded=1;orthogonalLoop=1;jettySize=auto;html=1;exitX=0.25;exitY=1;exitDx=0;exitDy=0;entryX=0;entryY=0.5;entryDx=0;entryDy=0;labelBackgroundColor=default;strokeColor=default;align=center;verticalAlign=middle;fontFamily=Helvetica;fontSize=11;fontColor=default;endArrow=classic;" parent="1" source="nb7vk2UFu0yFhdqlse9p-16" target="nb7vk2UFu0yFhdqlse9p-23" edge="1">
          <mxGeometry relative="1" as="geometry" />
        </mxCell>
        <mxCell id="nb7vk2UFu0yFhdqlse9p-16" value="__slab_alloc" style="rounded=1;whiteSpace=wrap;html=1;" parent="1" vertex="1">
          <mxGeometry x="40" y="2160" width="130" height="40" as="geometry" />
        </mxCell>
        <mxCell id="nb7vk2UFu0yFhdqlse9p-19" value="get_freepointer_safe" style="rounded=1;whiteSpace=wrap;html=1;" parent="1" vertex="1">
          <mxGeometry x="535" y="1890" width="130" height="40" as="geometry" />
        </mxCell>
        <mxCell id="nb7vk2UFu0yFhdqlse9p-21" value="优先从Per-CPU cache中&lt;br&gt;获取空闲对象" style="text;html=1;align=center;verticalAlign=middle;resizable=0;points=[];autosize=1;strokeColor=none;fillColor=none;fontSize=11;fontFamily=Helvetica;fontColor=default;" parent="1" vertex="1">
          <mxGeometry x="520" y="1760" width="140" height="40" as="geometry" />
        </mxCell>
        <mxCell id="nb7vk2UFu0yFhdqlse9p-22" value="local_irq_save" style="rounded=1;whiteSpace=wrap;html=1;" parent="1" vertex="1">
          <mxGeometry x="110" y="2220" width="130" height="40" as="geometry" />
        </mxCell>
        <mxCell id="nb7vk2UFu0yFhdqlse9p-23" value="local_irq_restore" style="rounded=1;whiteSpace=wrap;html=1;" parent="1" vertex="1">
          <mxGeometry x="110" y="2660" width="130" height="40" as="geometry" />
        </mxCell>
        <mxCell id="nb7vk2UFu0yFhdqlse9p-31" style="edgeStyle=orthogonalEdgeStyle;shape=connector;rounded=1;orthogonalLoop=1;jettySize=auto;html=1;exitX=0.25;exitY=1;exitDx=0;exitDy=0;entryX=0;entryY=0.5;entryDx=0;entryDy=0;labelBackgroundColor=default;strokeColor=default;align=center;verticalAlign=middle;fontFamily=Helvetica;fontSize=11;fontColor=default;endArrow=classic;" parent="1" source="nb7vk2UFu0yFhdqlse9p-24" target="nb7vk2UFu0yFhdqlse9p-28" edge="1">
          <mxGeometry relative="1" as="geometry" />
        </mxCell>
        <mxCell id="nb7vk2UFu0yFhdqlse9p-32" style="edgeStyle=orthogonalEdgeStyle;shape=connector;rounded=1;orthogonalLoop=1;jettySize=auto;html=1;exitX=0.25;exitY=1;exitDx=0;exitDy=0;entryX=0;entryY=0.5;entryDx=0;entryDy=0;labelBackgroundColor=default;strokeColor=default;align=center;verticalAlign=middle;fontFamily=Helvetica;fontSize=11;fontColor=default;endArrow=classic;" parent="1" source="nb7vk2UFu0yFhdqlse9p-24" target="nb7vk2UFu0yFhdqlse9p-29" edge="1">
          <mxGeometry relative="1" as="geometry" />
        </mxCell>
        <mxCell id="nb7vk2UFu0yFhdqlse9p-33" style="edgeStyle=orthogonalEdgeStyle;shape=connector;rounded=1;orthogonalLoop=1;jettySize=auto;html=1;exitX=0.25;exitY=1;exitDx=0;exitDy=0;entryX=0;entryY=0.5;entryDx=0;entryDy=0;labelBackgroundColor=default;strokeColor=default;align=center;verticalAlign=middle;fontFamily=Helvetica;fontSize=11;fontColor=default;endArrow=classic;" parent="1" source="nb7vk2UFu0yFhdqlse9p-24" target="nb7vk2UFu0yFhdqlse9p-30" edge="1">
          <mxGeometry relative="1" as="geometry" />
        </mxCell>
        <mxCell id="nb7vk2UFu0yFhdqlse9p-24" value="___slab_alloc" style="rounded=1;whiteSpace=wrap;html=1;" parent="1" vertex="1">
          <mxGeometry x="110" y="2280" width="130" height="40" as="geometry" />
        </mxCell>
        <mxCell id="nb7vk2UFu0yFhdqlse9p-28" value="get_freelist" style="rounded=1;whiteSpace=wrap;html=1;" parent="1" vertex="1">
          <mxGeometry x="180" y="2340" width="130" height="40" as="geometry" />
        </mxCell>
        <mxCell id="nb7vk2UFu0yFhdqlse9p-36" style="edgeStyle=orthogonalEdgeStyle;shape=connector;rounded=1;orthogonalLoop=1;jettySize=auto;html=1;exitX=0.25;exitY=1;exitDx=0;exitDy=0;entryX=0;entryY=0.5;entryDx=0;entryDy=0;labelBackgroundColor=default;strokeColor=default;align=center;verticalAlign=middle;fontFamily=Helvetica;fontSize=11;fontColor=default;endArrow=classic;" parent="1" source="nb7vk2UFu0yFhdqlse9p-29" target="nb7vk2UFu0yFhdqlse9p-34" edge="1">
          <mxGeometry relative="1" as="geometry" />
        </mxCell>
        <mxCell id="nb7vk2UFu0yFhdqlse9p-37" style="edgeStyle=orthogonalEdgeStyle;shape=connector;rounded=1;orthogonalLoop=1;jettySize=auto;html=1;exitX=0.25;exitY=1;exitDx=0;exitDy=0;entryX=0;entryY=0.5;entryDx=0;entryDy=0;labelBackgroundColor=default;strokeColor=default;align=center;verticalAlign=middle;fontFamily=Helvetica;fontSize=11;fontColor=default;endArrow=classic;" parent="1" source="nb7vk2UFu0yFhdqlse9p-29" target="nb7vk2UFu0yFhdqlse9p-35" edge="1">
          <mxGeometry relative="1" as="geometry" />
        </mxCell>
        <mxCell id="nb7vk2UFu0yFhdqlse9p-29" value="new_slab_objects" style="rounded=1;whiteSpace=wrap;html=1;" parent="1" vertex="1">
          <mxGeometry x="180" y="2400" width="130" height="40" as="geometry" />
        </mxCell>
        <mxCell id="nb7vk2UFu0yFhdqlse9p-30" value="deactivate_slab" style="rounded=1;whiteSpace=wrap;html=1;" parent="1" vertex="1">
          <mxGeometry x="180" y="2600" width="130" height="40" as="geometry" />
        </mxCell>
        <mxCell id="nb7vk2UFu0yFhdqlse9p-34" value="get_partial" style="rounded=1;whiteSpace=wrap;html=1;" parent="1" vertex="1">
          <mxGeometry x="240" y="2460" width="130" height="40" as="geometry" />
        </mxCell>
        <mxCell id="nb7vk2UFu0yFhdqlse9p-39" style="edgeStyle=orthogonalEdgeStyle;shape=connector;rounded=1;orthogonalLoop=1;jettySize=auto;html=1;exitX=0.25;exitY=1;exitDx=0;exitDy=0;entryX=0;entryY=0.5;entryDx=0;entryDy=0;labelBackgroundColor=default;strokeColor=default;align=center;verticalAlign=middle;fontFamily=Helvetica;fontSize=11;fontColor=default;endArrow=classic;" parent="1" source="nb7vk2UFu0yFhdqlse9p-35" target="nb7vk2UFu0yFhdqlse9p-38" edge="1">
          <mxGeometry relative="1" as="geometry" />
        </mxCell>
        <mxCell id="nb7vk2UFu0yFhdqlse9p-35" value="new_slab" style="rounded=1;whiteSpace=wrap;html=1;" parent="1" vertex="1">
          <mxGeometry x="240" y="2520" width="130" height="40" as="geometry" />
        </mxCell>
        <mxCell id="nb7vk2UFu0yFhdqlse9p-43" style="edgeStyle=orthogonalEdgeStyle;shape=connector;rounded=1;orthogonalLoop=1;jettySize=auto;html=1;exitX=0.25;exitY=1;exitDx=0;exitDy=0;entryX=0;entryY=0.5;entryDx=0;entryDy=0;labelBackgroundColor=default;strokeColor=default;align=center;verticalAlign=middle;fontFamily=Helvetica;fontSize=11;fontColor=default;endArrow=classic;" parent="1" source="nb7vk2UFu0yFhdqlse9p-38" target="nb7vk2UFu0yFhdqlse9p-40" edge="1">
          <mxGeometry relative="1" as="geometry" />
        </mxCell>
        <mxCell id="nb7vk2UFu0yFhdqlse9p-44" style="edgeStyle=orthogonalEdgeStyle;shape=connector;rounded=1;orthogonalLoop=1;jettySize=auto;html=1;exitX=0.25;exitY=1;exitDx=0;exitDy=0;entryX=0;entryY=0.5;entryDx=0;entryDy=0;labelBackgroundColor=default;strokeColor=default;align=center;verticalAlign=middle;fontFamily=Helvetica;fontSize=11;fontColor=default;endArrow=classic;" parent="1" source="nb7vk2UFu0yFhdqlse9p-38" target="nb7vk2UFu0yFhdqlse9p-41" edge="1">
          <mxGeometry relative="1" as="geometry" />
        </mxCell>
        <mxCell id="nb7vk2UFu0yFhdqlse9p-45" style="edgeStyle=orthogonalEdgeStyle;shape=connector;rounded=1;orthogonalLoop=1;jettySize=auto;html=1;exitX=0.25;exitY=1;exitDx=0;exitDy=0;entryX=0;entryY=0.5;entryDx=0;entryDy=0;labelBackgroundColor=default;strokeColor=default;align=center;verticalAlign=middle;fontFamily=Helvetica;fontSize=11;fontColor=default;endArrow=classic;" parent="1" source="nb7vk2UFu0yFhdqlse9p-38" target="nb7vk2UFu0yFhdqlse9p-42" edge="1">
          <mxGeometry relative="1" as="geometry" />
        </mxCell>
        <mxCell id="nb7vk2UFu0yFhdqlse9p-38" value="allocate_slab" style="rounded=1;whiteSpace=wrap;html=1;" parent="1" vertex="1">
          <mxGeometry x="490" y="2160" width="130" height="40" as="geometry" />
        </mxCell>
        <mxCell id="nb7vk2UFu0yFhdqlse9p-40" value="alloc_slab_page" style="rounded=1;whiteSpace=wrap;html=1;" parent="1" vertex="1">
          <mxGeometry x="550" y="2220" width="130" height="40" as="geometry" />
        </mxCell>
        <mxCell id="nb7vk2UFu0yFhdqlse9p-41" value="shuffle = shuffle_freelist" style="rounded=1;whiteSpace=wrap;html=1;" parent="1" vertex="1">
          <mxGeometry x="550" y="2280" width="130" height="40" as="geometry" />
        </mxCell>
        <mxCell id="nb7vk2UFu0yFhdqlse9p-49" style="edgeStyle=orthogonalEdgeStyle;shape=connector;rounded=1;orthogonalLoop=1;jettySize=auto;html=1;exitX=0.5;exitY=1;exitDx=0;exitDy=0;entryX=0;entryY=0.5;entryDx=0;entryDy=0;labelBackgroundColor=default;strokeColor=default;align=center;verticalAlign=middle;fontFamily=Helvetica;fontSize=11;fontColor=default;endArrow=classic;" parent="1" source="nb7vk2UFu0yFhdqlse9p-42" target="nb7vk2UFu0yFhdqlse9p-46" edge="1">
          <mxGeometry relative="1" as="geometry" />
        </mxCell>
        <mxCell id="nb7vk2UFu0yFhdqlse9p-50" style="edgeStyle=orthogonalEdgeStyle;shape=connector;rounded=1;orthogonalLoop=1;jettySize=auto;html=1;exitX=0.5;exitY=1;exitDx=0;exitDy=0;entryX=0;entryY=0.5;entryDx=0;entryDy=0;labelBackgroundColor=default;strokeColor=default;align=center;verticalAlign=middle;fontFamily=Helvetica;fontSize=11;fontColor=default;endArrow=classic;" parent="1" source="nb7vk2UFu0yFhdqlse9p-42" target="nb7vk2UFu0yFhdqlse9p-47" edge="1">
          <mxGeometry relative="1" as="geometry" />
        </mxCell>
        <mxCell id="nb7vk2UFu0yFhdqlse9p-51" style="edgeStyle=orthogonalEdgeStyle;shape=connector;rounded=1;orthogonalLoop=1;jettySize=auto;html=1;exitX=0.5;exitY=1;exitDx=0;exitDy=0;entryX=0;entryY=0.5;entryDx=0;entryDy=0;labelBackgroundColor=default;strokeColor=default;align=center;verticalAlign=middle;fontFamily=Helvetica;fontSize=11;fontColor=default;endArrow=classic;" parent="1" source="nb7vk2UFu0yFhdqlse9p-42" target="nb7vk2UFu0yFhdqlse9p-48" edge="1">
          <mxGeometry relative="1" as="geometry" />
        </mxCell>
        <mxCell id="nb7vk2UFu0yFhdqlse9p-55" style="edgeStyle=orthogonalEdgeStyle;shape=connector;rounded=1;orthogonalLoop=1;jettySize=auto;html=1;exitX=0.5;exitY=1;exitDx=0;exitDy=0;entryX=0;entryY=0.5;entryDx=0;entryDy=0;labelBackgroundColor=default;strokeColor=default;align=center;verticalAlign=middle;fontFamily=Helvetica;fontSize=11;fontColor=default;endArrow=classic;" parent="1" source="nb7vk2UFu0yFhdqlse9p-42" target="nb7vk2UFu0yFhdqlse9p-52" edge="1">
          <mxGeometry relative="1" as="geometry" />
        </mxCell>
        <mxCell id="nb7vk2UFu0yFhdqlse9p-42" value="!shuffle" style="rhombus;whiteSpace=wrap;html=1;fontFamily=Helvetica;fontSize=11;fontColor=default;" parent="1" vertex="1">
          <mxGeometry x="550" y="2340" width="80" height="40" as="geometry" />
        </mxCell>
        <mxCell id="nb7vk2UFu0yFhdqlse9p-46" value="start = fixup_red_left" style="rounded=1;whiteSpace=wrap;html=1;" parent="1" vertex="1">
          <mxGeometry x="620" y="2400" width="130" height="40" as="geometry" />
        </mxCell>
        <mxCell id="nb7vk2UFu0yFhdqlse9p-47" value="start = setup_object" style="rounded=1;whiteSpace=wrap;html=1;" parent="1" vertex="1">
          <mxGeometry x="620" y="2460" width="130" height="40" as="geometry" />
        </mxCell>
        <mxCell id="nb7vk2UFu0yFhdqlse9p-48" value="set_freepointer" style="rounded=1;whiteSpace=wrap;html=1;" parent="1" vertex="1">
          <mxGeometry x="630" y="2690" width="130" height="40" as="geometry" />
        </mxCell>
        <mxCell id="nb7vk2UFu0yFhdqlse9p-54" style="edgeStyle=orthogonalEdgeStyle;shape=connector;rounded=1;orthogonalLoop=1;jettySize=auto;html=1;exitX=0.25;exitY=1;exitDx=0;exitDy=0;entryX=0;entryY=0.5;entryDx=0;entryDy=0;labelBackgroundColor=default;strokeColor=default;align=center;verticalAlign=middle;fontFamily=Helvetica;fontSize=11;fontColor=default;endArrow=classic;" parent="1" source="nb7vk2UFu0yFhdqlse9p-52" target="nb7vk2UFu0yFhdqlse9p-53" edge="1">
          <mxGeometry relative="1" as="geometry" />
        </mxCell>
        <mxCell id="nb7vk2UFu0yFhdqlse9p-52" value="page-&amp;gt;freelist = start;" style="rounded=1;whiteSpace=wrap;html=1;" parent="1" vertex="1">
          <mxGeometry x="620" y="2520" width="130" height="40" as="geometry" />
        </mxCell>
        <mxCell id="nb7vk2UFu0yFhdqlse9p-57" style="edgeStyle=orthogonalEdgeStyle;shape=connector;rounded=1;orthogonalLoop=1;jettySize=auto;html=1;exitX=0.25;exitY=1;exitDx=0;exitDy=0;entryX=0;entryY=0.5;entryDx=0;entryDy=0;labelBackgroundColor=default;strokeColor=default;align=center;verticalAlign=middle;fontFamily=Helvetica;fontSize=11;fontColor=default;endArrow=classic;" parent="1" source="nb7vk2UFu0yFhdqlse9p-53" target="nb7vk2UFu0yFhdqlse9p-56" edge="1">
          <mxGeometry relative="1" as="geometry" />
        </mxCell>
        <mxCell id="nb7vk2UFu0yFhdqlse9p-53" value="遍历page上的所有object" style="rounded=0;whiteSpace=wrap;html=1;" parent="1" vertex="1">
          <mxGeometry x="680" y="2580" width="150" height="30" as="geometry" />
        </mxCell>
        <mxCell id="nb7vk2UFu0yFhdqlse9p-56" value="setup_object" style="rounded=1;whiteSpace=wrap;html=1;" parent="1" vertex="1">
          <mxGeometry x="750" y="2630" width="130" height="40" as="geometry" />
        </mxCell>
        <mxCell id="nb7vk2UFu0yFhdqlse9p-89" value="__slab_alloc" style="rounded=1;whiteSpace=wrap;html=1;" parent="1" vertex="1">
          <mxGeometry x="600" y="1820" width="130" height="40" as="geometry" />
        </mxCell>
        <mxCell id="HntHIVvRoSXTO6GEenBm-1" value="" style="rounded=0;whiteSpace=wrap;html=1;fontFamily=Helvetica;fontSize=11;fontColor=default;" parent="1" vertex="1">
          <mxGeometry width="1300" height="760" as="geometry" />
        </mxCell>
        <mxCell id="HntHIVvRoSXTO6GEenBm-2" style="edgeStyle=orthogonalEdgeStyle;rounded=1;orthogonalLoop=1;jettySize=auto;html=1;exitX=0.25;exitY=1;exitDx=0;exitDy=0;entryX=0;entryY=0.5;entryDx=0;entryDy=0;curved=0;" parent="1" source="HntHIVvRoSXTO6GEenBm-3" target="HntHIVvRoSXTO6GEenBm-5" edge="1">
          <mxGeometry relative="1" as="geometry" />
        </mxCell>
        <mxCell id="HntHIVvRoSXTO6GEenBm-3" value="kmem_cache_create" style="rounded=1;whiteSpace=wrap;html=1;" parent="1" vertex="1">
          <mxGeometry x="25" y="40" width="140" height="40" as="geometry" />
        </mxCell>
        <mxCell id="HntHIVvRoSXTO6GEenBm-4" style="edgeStyle=orthogonalEdgeStyle;rounded=1;orthogonalLoop=1;jettySize=auto;html=1;exitX=0.25;exitY=1;exitDx=0;exitDy=0;entryX=0;entryY=0.5;entryDx=0;entryDy=0;" parent="1" source="HntHIVvRoSXTO6GEenBm-5" target="HntHIVvRoSXTO6GEenBm-9" edge="1">
          <mxGeometry relative="1" as="geometry" />
        </mxCell>
        <mxCell id="HntHIVvRoSXTO6GEenBm-5" value="kmem_cache_create_usercopy" style="rounded=1;whiteSpace=wrap;html=1;" parent="1" vertex="1">
          <mxGeometry x="95" y="100" width="180" height="40" as="geometry" />
        </mxCell>
        <mxCell id="HntHIVvRoSXTO6GEenBm-6" style="edgeStyle=orthogonalEdgeStyle;rounded=1;orthogonalLoop=1;jettySize=auto;html=1;exitX=0.25;exitY=1;exitDx=0;exitDy=0;entryX=0;entryY=0.5;entryDx=0;entryDy=0;" parent="1" source="HntHIVvRoSXTO6GEenBm-9" target="HntHIVvRoSXTO6GEenBm-10" edge="1">
          <mxGeometry relative="1" as="geometry" />
        </mxCell>
        <mxCell id="HntHIVvRoSXTO6GEenBm-7" style="edgeStyle=orthogonalEdgeStyle;rounded=1;orthogonalLoop=1;jettySize=auto;html=1;exitX=0.25;exitY=1;exitDx=0;exitDy=0;entryX=0;entryY=0.5;entryDx=0;entryDy=0;" parent="1" source="HntHIVvRoSXTO6GEenBm-9" target="HntHIVvRoSXTO6GEenBm-14" edge="1">
          <mxGeometry relative="1" as="geometry" />
        </mxCell>
        <mxCell id="HntHIVvRoSXTO6GEenBm-8" style="edgeStyle=orthogonalEdgeStyle;shape=connector;rounded=1;orthogonalLoop=1;jettySize=auto;html=1;exitX=0.25;exitY=1;exitDx=0;exitDy=0;entryX=0;entryY=0.5;entryDx=0;entryDy=0;labelBackgroundColor=default;strokeColor=default;align=center;verticalAlign=middle;fontFamily=Helvetica;fontSize=11;fontColor=default;endArrow=classic;" parent="1" source="HntHIVvRoSXTO6GEenBm-9" target="HntHIVvRoSXTO6GEenBm-33" edge="1">
          <mxGeometry relative="1" as="geometry" />
        </mxCell>
        <mxCell id="HntHIVvRoSXTO6GEenBm-9" value="create_cache" style="rounded=1;whiteSpace=wrap;html=1;" parent="1" vertex="1">
          <mxGeometry x="175" y="160" width="120" height="40" as="geometry" />
        </mxCell>
        <mxCell id="HntHIVvRoSXTO6GEenBm-10" value="kmem_cache_zalloc" style="rounded=1;whiteSpace=wrap;html=1;" parent="1" vertex="1">
          <mxGeometry x="240" y="220" width="160" height="40" as="geometry" />
        </mxCell>
        <mxCell id="HntHIVvRoSXTO6GEenBm-11" style="edgeStyle=orthogonalEdgeStyle;rounded=1;orthogonalLoop=1;jettySize=auto;html=1;exitX=0.25;exitY=1;exitDx=0;exitDy=0;entryX=0;entryY=0.5;entryDx=0;entryDy=0;" parent="1" source="HntHIVvRoSXTO6GEenBm-13" target="HntHIVvRoSXTO6GEenBm-17" edge="1">
          <mxGeometry relative="1" as="geometry" />
        </mxCell>
        <mxCell id="HntHIVvRoSXTO6GEenBm-12" style="edgeStyle=orthogonalEdgeStyle;rounded=1;orthogonalLoop=1;jettySize=auto;html=1;exitX=0.25;exitY=1;exitDx=0;exitDy=0;entryX=0;entryY=0.5;entryDx=0;entryDy=0;" parent="1" source="HntHIVvRoSXTO6GEenBm-13" target="HntHIVvRoSXTO6GEenBm-18" edge="1">
          <mxGeometry relative="1" as="geometry" />
        </mxCell>
        <mxCell id="HntHIVvRoSXTO6GEenBm-13" value="__kmem_cache_create" style="rounded=1;whiteSpace=wrap;html=1;" parent="1" vertex="1">
          <mxGeometry x="500" y="40" width="160" height="40" as="geometry" />
        </mxCell>
        <mxCell id="HntHIVvRoSXTO6GEenBm-14" value="list_add(&amp;amp;slab_caches);" style="rounded=1;whiteSpace=wrap;html=1;" parent="1" vertex="1">
          <mxGeometry x="240" y="340" width="160" height="40" as="geometry" />
        </mxCell>
        <mxCell id="HntHIVvRoSXTO6GEenBm-15" style="edgeStyle=orthogonalEdgeStyle;rounded=1;orthogonalLoop=1;jettySize=auto;html=1;exitX=0.25;exitY=1;exitDx=0;exitDy=0;entryX=0;entryY=0.5;entryDx=0;entryDy=0;" parent="1" source="HntHIVvRoSXTO6GEenBm-17" target="HntHIVvRoSXTO6GEenBm-20" edge="1">
          <mxGeometry relative="1" as="geometry" />
        </mxCell>
        <mxCell id="HntHIVvRoSXTO6GEenBm-16" style="edgeStyle=orthogonalEdgeStyle;rounded=1;orthogonalLoop=1;jettySize=auto;html=1;exitX=0.25;exitY=1;exitDx=0;exitDy=0;entryX=0;entryY=0.5;entryDx=0;entryDy=0;" parent="1" source="HntHIVvRoSXTO6GEenBm-17" target="HntHIVvRoSXTO6GEenBm-23" edge="1">
          <mxGeometry relative="1" as="geometry" />
        </mxCell>
        <mxCell id="HntHIVvRoSXTO6GEenBm-17" value="kem_cache_open" style="rounded=1;whiteSpace=wrap;html=1;" parent="1" vertex="1">
          <mxGeometry x="580" y="100" width="160" height="40" as="geometry" />
        </mxCell>
        <mxCell id="HntHIVvRoSXTO6GEenBm-18" value="sysfs_slab_add" style="rounded=1;whiteSpace=wrap;html=1;" parent="1" vertex="1">
          <mxGeometry x="580" y="640" width="160" height="40" as="geometry" />
        </mxCell>
        <mxCell id="HntHIVvRoSXTO6GEenBm-19" style="edgeStyle=orthogonalEdgeStyle;rounded=1;orthogonalLoop=1;jettySize=auto;html=1;exitX=0.25;exitY=1;exitDx=0;exitDy=0;entryX=0;entryY=0.5;entryDx=0;entryDy=0;" parent="1" source="HntHIVvRoSXTO6GEenBm-20" target="HntHIVvRoSXTO6GEenBm-27" edge="1">
          <mxGeometry relative="1" as="geometry" />
        </mxCell>
        <mxCell id="HntHIVvRoSXTO6GEenBm-20" value="init_kmem_cache_nodes" style="rounded=1;whiteSpace=wrap;html=1;" parent="1" vertex="1">
          <mxGeometry x="660" y="160" width="160" height="40" as="geometry" />
        </mxCell>
        <mxCell id="HntHIVvRoSXTO6GEenBm-21" style="edgeStyle=orthogonalEdgeStyle;rounded=1;orthogonalLoop=1;jettySize=auto;html=1;exitX=0.25;exitY=1;exitDx=0;exitDy=0;entryX=0;entryY=0.75;entryDx=0;entryDy=0;" parent="1" source="HntHIVvRoSXTO6GEenBm-23" target="HntHIVvRoSXTO6GEenBm-30" edge="1">
          <mxGeometry relative="1" as="geometry" />
        </mxCell>
        <mxCell id="HntHIVvRoSXTO6GEenBm-22" style="edgeStyle=orthogonalEdgeStyle;rounded=1;orthogonalLoop=1;jettySize=auto;html=1;exitX=0.25;exitY=1;exitDx=0;exitDy=0;entryX=0;entryY=0.5;entryDx=0;entryDy=0;" parent="1" source="HntHIVvRoSXTO6GEenBm-23" target="HntHIVvRoSXTO6GEenBm-31" edge="1">
          <mxGeometry relative="1" as="geometry" />
        </mxCell>
        <mxCell id="HntHIVvRoSXTO6GEenBm-23" value="alloc_kmem_cache_cpus" style="rounded=1;whiteSpace=wrap;html=1;" parent="1" vertex="1">
          <mxGeometry x="660" y="460" width="160" height="40" as="geometry" />
        </mxCell>
        <mxCell id="HntHIVvRoSXTO6GEenBm-24" style="edgeStyle=orthogonalEdgeStyle;rounded=1;orthogonalLoop=1;jettySize=auto;html=1;exitX=0.25;exitY=1;exitDx=0;exitDy=0;entryX=0;entryY=0.5;entryDx=0;entryDy=0;" parent="1" source="HntHIVvRoSXTO6GEenBm-27" target="HntHIVvRoSXTO6GEenBm-28" edge="1">
          <mxGeometry relative="1" as="geometry" />
        </mxCell>
        <mxCell id="HntHIVvRoSXTO6GEenBm-25" style="edgeStyle=orthogonalEdgeStyle;rounded=1;orthogonalLoop=1;jettySize=auto;html=1;exitX=0.25;exitY=1;exitDx=0;exitDy=0;entryX=0;entryY=0.5;entryDx=0;entryDy=0;" parent="1" source="HntHIVvRoSXTO6GEenBm-27" target="HntHIVvRoSXTO6GEenBm-29" edge="1">
          <mxGeometry relative="1" as="geometry" />
        </mxCell>
        <mxCell id="HntHIVvRoSXTO6GEenBm-26" style="edgeStyle=orthogonalEdgeStyle;shape=connector;rounded=1;orthogonalLoop=1;jettySize=auto;html=1;exitX=0.25;exitY=1;exitDx=0;exitDy=0;entryX=0;entryY=0.5;entryDx=0;entryDy=0;labelBackgroundColor=default;strokeColor=default;align=center;verticalAlign=middle;fontFamily=Helvetica;fontSize=11;fontColor=default;endArrow=classic;" parent="1" source="HntHIVvRoSXTO6GEenBm-27" target="HntHIVvRoSXTO6GEenBm-35" edge="1">
          <mxGeometry relative="1" as="geometry" />
        </mxCell>
        <mxCell id="HntHIVvRoSXTO6GEenBm-27" value="for_each_node_state(node, N_NORMAL_MEMORY) {" style="rounded=0;whiteSpace=wrap;html=1;" parent="1" vertex="1">
          <mxGeometry x="740" y="220" width="300" height="30" as="geometry" />
        </mxCell>
        <mxCell id="HntHIVvRoSXTO6GEenBm-28" value="kmem_cache_alloc_node" style="rounded=1;whiteSpace=wrap;html=1;" parent="1" vertex="1">
          <mxGeometry x="860" y="340" width="160" height="40" as="geometry" />
        </mxCell>
        <mxCell id="HntHIVvRoSXTO6GEenBm-29" value="init_kmem_cache_node" style="rounded=1;whiteSpace=wrap;html=1;" parent="1" vertex="1">
          <mxGeometry x="860" y="400" width="160" height="40" as="geometry" />
        </mxCell>
        <mxCell id="HntHIVvRoSXTO6GEenBm-30" value="s-&amp;gt;cpu_slab = __alloc_percpu()" style="rounded=1;whiteSpace=wrap;html=1;" parent="1" vertex="1">
          <mxGeometry x="740" y="520" width="200" height="40" as="geometry" />
        </mxCell>
        <mxCell id="HntHIVvRoSXTO6GEenBm-31" value="init_kmem_cache_cpus" style="rounded=1;whiteSpace=wrap;html=1;" parent="1" vertex="1">
          <mxGeometry x="740" y="580" width="200" height="40" as="geometry" />
        </mxCell>
        <mxCell id="HntHIVvRoSXTO6GEenBm-32" style="edgeStyle=orthogonalEdgeStyle;shape=connector;rounded=1;orthogonalLoop=1;jettySize=auto;html=1;exitX=1;exitY=0.5;exitDx=0;exitDy=0;entryX=0;entryY=0.5;entryDx=0;entryDy=0;labelBackgroundColor=default;strokeColor=default;align=center;verticalAlign=middle;fontFamily=Helvetica;fontSize=11;fontColor=default;endArrow=classic;dashed=1;" parent="1" source="HntHIVvRoSXTO6GEenBm-33" target="HntHIVvRoSXTO6GEenBm-13" edge="1">
          <mxGeometry relative="1" as="geometry" />
        </mxCell>
        <mxCell id="HntHIVvRoSXTO6GEenBm-33" value="__kmem_cache_create" style="rounded=1;whiteSpace=wrap;html=1;" parent="1" vertex="1">
          <mxGeometry x="240" y="280" width="160" height="40" as="geometry" />
        </mxCell>
        <mxCell id="HntHIVvRoSXTO6GEenBm-34" style="edgeStyle=orthogonalEdgeStyle;shape=connector;rounded=1;orthogonalLoop=1;jettySize=auto;html=1;exitX=1;exitY=0.5;exitDx=0;exitDy=0;entryX=0;entryY=0.5;entryDx=0;entryDy=0;labelBackgroundColor=default;strokeColor=default;align=center;verticalAlign=middle;fontFamily=Helvetica;fontSize=11;fontColor=default;endArrow=classic;" parent="1" source="HntHIVvRoSXTO6GEenBm-35" target="HntHIVvRoSXTO6GEenBm-36" edge="1">
          <mxGeometry relative="1" as="geometry" />
        </mxCell>
        <mxCell id="HntHIVvRoSXTO6GEenBm-35" value="slab_state == &lt;br&gt;DOWN" style="rhombus;whiteSpace=wrap;html=1;fontFamily=Helvetica;fontSize=11;fontColor=default;" parent="1" vertex="1">
          <mxGeometry x="860" y="270" width="100" height="50" as="geometry" />
        </mxCell>
        <mxCell id="HntHIVvRoSXTO6GEenBm-36" value="early_kmem_cache_node_alloc" style="rounded=1;whiteSpace=wrap;html=1;" parent="1" vertex="1">
          <mxGeometry x="1000" y="275" width="180" height="40" as="geometry" />
        </mxCell>
        <mxCell id="HHy1Um0U1kujq93Rr5SG-1" value="通用流程" style="text;html=1;strokeColor=none;fillColor=none;align=center;verticalAlign=middle;whiteSpace=wrap;rounded=0;" vertex="1" parent="1">
          <mxGeometry x="130" y="430" width="145" height="30" as="geometry" />
        </mxCell>
        <mxCell id="HHy1Um0U1kujq93Rr5SG-2" value="slub流程" style="text;html=1;strokeColor=none;fillColor=none;align=center;verticalAlign=middle;whiteSpace=wrap;rounded=0;" vertex="1" parent="1">
          <mxGeometry x="740" y="710" width="217.5" height="30" as="geometry" />
        </mxCell>
        <mxCell id="HHy1Um0U1kujq93Rr5SG-3" value="系统早期初始化的slub缓存构建" style="text;html=1;strokeColor=none;fillColor=none;align=center;verticalAlign=middle;whiteSpace=wrap;rounded=0;" vertex="1" parent="1">
          <mxGeometry x="1190" y="275" width="90" height="30" as="geometry" />
        </mxCell>
        <mxCell id="HHy1Um0U1kujq93Rr5SG-6" value="初始化node缓存" style="text;html=1;strokeColor=none;fillColor=none;align=center;verticalAlign=middle;whiteSpace=wrap;rounded=0;" vertex="1" parent="1">
          <mxGeometry x="820" y="165" width="110" height="30" as="geometry" />
        </mxCell>
        <mxCell id="HHy1Um0U1kujq93Rr5SG-7" value="初始化Per-CPU缓存" style="text;html=1;strokeColor=none;fillColor=none;align=center;verticalAlign=middle;whiteSpace=wrap;rounded=0;" vertex="1" parent="1">
          <mxGeometry x="827" y="465" width="110" height="30" as="geometry" />
        </mxCell>
      </root>
    </mxGraphModel>
  </diagram>
  <diagram id="WB4DR_r-bg6jr05737Ex" name="slub分配器">
    <mxGraphModel dx="1383" dy="1070" grid="1" gridSize="10" guides="1" tooltips="1" connect="1" arrows="1" fold="1" page="1" pageScale="1" pageWidth="827" pageHeight="1169" math="0" shadow="0">
      <root>
        <mxCell id="0" />
        <mxCell id="1" parent="0" />
        <mxCell id="4fcKTC8SZaugYzXGXpfN-1" value="" style="rounded=0;whiteSpace=wrap;html=1;strokeWidth=0;" parent="1" vertex="1">
          <mxGeometry y="100" width="910" height="620" as="geometry" />
        </mxCell>
        <mxCell id="4fcKTC8SZaugYzXGXpfN-2" style="edgeStyle=orthogonalEdgeStyle;rounded=0;orthogonalLoop=1;jettySize=auto;html=1;exitX=0.5;exitY=1;exitDx=0;exitDy=0;entryX=0.5;entryY=0;entryDx=0;entryDy=0;" parent="1" source="4fcKTC8SZaugYzXGXpfN-3" target="4fcKTC8SZaugYzXGXpfN-5" edge="1">
          <mxGeometry relative="1" as="geometry" />
        </mxCell>
        <mxCell id="4fcKTC8SZaugYzXGXpfN-3" value="链表头&lt;br&gt;slab_caches" style="rounded=1;whiteSpace=wrap;html=1;absoluteArcSize=1;fillColor=#e1d5e7;strokeColor=#9673a6;" parent="1" vertex="1">
          <mxGeometry x="60" y="205" width="120" height="40" as="geometry" />
        </mxCell>
        <mxCell id="4fcKTC8SZaugYzXGXpfN-4" style="edgeStyle=orthogonalEdgeStyle;rounded=0;orthogonalLoop=1;jettySize=auto;html=1;exitX=0.5;exitY=1;exitDx=0;exitDy=0;entryX=0.5;entryY=0;entryDx=0;entryDy=0;" parent="1" source="4fcKTC8SZaugYzXGXpfN-5" target="4fcKTC8SZaugYzXGXpfN-7" edge="1">
          <mxGeometry relative="1" as="geometry" />
        </mxCell>
        <mxCell id="4fcKTC8SZaugYzXGXpfN-5" value="kmem_cache" style="rounded=0;whiteSpace=wrap;html=1;fillColor=#fff2cc;strokeColor=#d6b656;" parent="1" vertex="1">
          <mxGeometry x="70" y="275" width="100" height="30" as="geometry" />
        </mxCell>
        <mxCell id="4fcKTC8SZaugYzXGXpfN-6" style="edgeStyle=orthogonalEdgeStyle;rounded=0;orthogonalLoop=1;jettySize=auto;html=1;exitX=0.5;exitY=1;exitDx=0;exitDy=0;entryX=0.5;entryY=0;entryDx=0;entryDy=0;" parent="1" source="4fcKTC8SZaugYzXGXpfN-7" target="4fcKTC8SZaugYzXGXpfN-9" edge="1">
          <mxGeometry relative="1" as="geometry" />
        </mxCell>
        <mxCell id="4fcKTC8SZaugYzXGXpfN-7" value="kmem_cache" style="rounded=0;whiteSpace=wrap;html=1;fillColor=#fff2cc;strokeColor=#d6b656;" parent="1" vertex="1">
          <mxGeometry x="70" y="335" width="100" height="30" as="geometry" />
        </mxCell>
        <mxCell id="4fcKTC8SZaugYzXGXpfN-8" style="edgeStyle=orthogonalEdgeStyle;rounded=0;orthogonalLoop=1;jettySize=auto;html=1;exitX=0.5;exitY=1;exitDx=0;exitDy=0;entryX=0.5;entryY=0;entryDx=0;entryDy=0;" parent="1" source="4fcKTC8SZaugYzXGXpfN-9" target="4fcKTC8SZaugYzXGXpfN-11" edge="1">
          <mxGeometry relative="1" as="geometry" />
        </mxCell>
        <mxCell id="4fcKTC8SZaugYzXGXpfN-9" value="kmem_cache" style="rounded=0;whiteSpace=wrap;html=1;fillColor=#fff2cc;strokeColor=#d6b656;" parent="1" vertex="1">
          <mxGeometry x="70" y="395" width="100" height="30" as="geometry" />
        </mxCell>
        <mxCell id="4fcKTC8SZaugYzXGXpfN-10" style="edgeStyle=orthogonalEdgeStyle;rounded=0;orthogonalLoop=1;jettySize=auto;html=1;exitX=0.5;exitY=1;exitDx=0;exitDy=0;entryX=0.5;entryY=0;entryDx=0;entryDy=0;" parent="1" source="4fcKTC8SZaugYzXGXpfN-11" target="4fcKTC8SZaugYzXGXpfN-12" edge="1">
          <mxGeometry relative="1" as="geometry" />
        </mxCell>
        <mxCell id="4fcKTC8SZaugYzXGXpfN-11" value="kmem_cache" style="rounded=0;whiteSpace=wrap;html=1;fillColor=#fff2cc;strokeColor=#d6b656;" parent="1" vertex="1">
          <mxGeometry x="70" y="455" width="100" height="30" as="geometry" />
        </mxCell>
        <mxCell id="4fcKTC8SZaugYzXGXpfN-12" value="..." style="text;html=1;strokeColor=none;fillColor=none;align=center;verticalAlign=middle;whiteSpace=wrap;rounded=0;" parent="1" vertex="1">
          <mxGeometry x="70" y="515" width="100" height="30" as="geometry" />
        </mxCell>
        <mxCell id="4fcKTC8SZaugYzXGXpfN-13" value="" style="html=1;shadow=0;dashed=0;align=center;verticalAlign=middle;shape=mxgraph.arrows2.arrow;dy=0.67;dx=13;notch=0;" parent="1" vertex="1">
          <mxGeometry x="180" y="335" width="40" height="30" as="geometry" />
        </mxCell>
        <mxCell id="4fcKTC8SZaugYzXGXpfN-14" value="kmem_cache" style="rounded=1;whiteSpace=wrap;html=1;verticalAlign=top;absoluteArcSize=1;fillColor=#ffcc99;strokeColor=#36393d;" parent="1" vertex="1">
          <mxGeometry x="230" y="265" width="130" height="150" as="geometry" />
        </mxCell>
        <mxCell id="4fcKTC8SZaugYzXGXpfN-15" value="kmem_cache_cpu" style="rounded=0;whiteSpace=wrap;html=1;" parent="1" vertex="1">
          <mxGeometry x="240" y="300" width="110" height="25" as="geometry" />
        </mxCell>
        <mxCell id="4fcKTC8SZaugYzXGXpfN-16" value="kmem_cache_node" style="rounded=0;whiteSpace=wrap;html=1;" parent="1" vertex="1">
          <mxGeometry x="240" y="375" width="110" height="25" as="geometry" />
        </mxCell>
        <mxCell id="4fcKTC8SZaugYzXGXpfN-17" value="name" style="rounded=0;whiteSpace=wrap;html=1;" parent="1" vertex="1">
          <mxGeometry x="240" y="325" width="110" height="25" as="geometry" />
        </mxCell>
        <mxCell id="4fcKTC8SZaugYzXGXpfN-18" value="..." style="rounded=0;whiteSpace=wrap;html=1;" parent="1" vertex="1">
          <mxGeometry x="240" y="350" width="110" height="25" as="geometry" />
        </mxCell>
        <mxCell id="4fcKTC8SZaugYzXGXpfN-19" value="N" style="rounded=1;whiteSpace=wrap;html=1;verticalAlign=bottom;absoluteArcSize=1;align=left;fillColor=#dae8fc;strokeColor=#6c8ebf;" parent="1" vertex="1">
          <mxGeometry x="440" y="120" width="130" height="150" as="geometry" />
        </mxCell>
        <mxCell id="4fcKTC8SZaugYzXGXpfN-20" value="..." style="rounded=1;whiteSpace=wrap;html=1;verticalAlign=bottom;absoluteArcSize=1;align=left;fillColor=#dae8fc;strokeColor=#6c8ebf;" parent="1" vertex="1">
          <mxGeometry x="450" y="130" width="130" height="150" as="geometry" />
        </mxCell>
        <mxCell id="4fcKTC8SZaugYzXGXpfN-21" value="1" style="rounded=1;whiteSpace=wrap;html=1;verticalAlign=bottom;absoluteArcSize=1;align=left;fillColor=#dae8fc;strokeColor=#6c8ebf;" parent="1" vertex="1">
          <mxGeometry x="460" y="140" width="130" height="150" as="geometry" />
        </mxCell>
        <mxCell id="4fcKTC8SZaugYzXGXpfN-22" value="kmem_cache_cpu" style="rounded=1;whiteSpace=wrap;html=1;verticalAlign=top;absoluteArcSize=1;fillColor=#dae8fc;strokeColor=#6c8ebf;" parent="1" vertex="1">
          <mxGeometry x="470" y="150" width="130" height="150" as="geometry" />
        </mxCell>
        <mxCell id="4fcKTC8SZaugYzXGXpfN-23" value="void **freelist;" style="rounded=0;whiteSpace=wrap;html=1;" parent="1" vertex="1">
          <mxGeometry x="480" y="185" width="110" height="25" as="geometry" />
        </mxCell>
        <mxCell id="4fcKTC8SZaugYzXGXpfN-24" style="rounded=0;orthogonalLoop=1;jettySize=auto;html=1;exitX=1;exitY=0.5;exitDx=0;exitDy=0;entryX=0;entryY=0.5;entryDx=0;entryDy=0;" parent="1" source="4fcKTC8SZaugYzXGXpfN-25" target="4fcKTC8SZaugYzXGXpfN-39" edge="1">
          <mxGeometry relative="1" as="geometry" />
        </mxCell>
        <mxCell id="4fcKTC8SZaugYzXGXpfN-25" value="struct page *partial" style="rounded=0;whiteSpace=wrap;html=1;" parent="1" vertex="1">
          <mxGeometry x="480" y="260" width="110" height="25" as="geometry" />
        </mxCell>
        <mxCell id="4fcKTC8SZaugYzXGXpfN-26" style="edgeStyle=orthogonalEdgeStyle;rounded=0;orthogonalLoop=1;jettySize=auto;html=1;exitX=1;exitY=0.5;exitDx=0;exitDy=0;entryX=0;entryY=0.5;entryDx=0;entryDy=0;" parent="1" source="4fcKTC8SZaugYzXGXpfN-27" target="4fcKTC8SZaugYzXGXpfN-31" edge="1">
          <mxGeometry relative="1" as="geometry" />
        </mxCell>
        <mxCell id="4fcKTC8SZaugYzXGXpfN-27" value="struct page *pages;" style="rounded=0;whiteSpace=wrap;html=1;" parent="1" vertex="1">
          <mxGeometry x="480" y="235" width="110" height="25" as="geometry" />
        </mxCell>
        <mxCell id="4fcKTC8SZaugYzXGXpfN-28" value="..." style="rounded=0;whiteSpace=wrap;html=1;" parent="1" vertex="1">
          <mxGeometry x="480" y="210" width="110" height="25" as="geometry" />
        </mxCell>
        <mxCell id="4fcKTC8SZaugYzXGXpfN-29" style="edgeStyle=orthogonalEdgeStyle;rounded=1;orthogonalLoop=1;jettySize=auto;html=1;exitX=1;exitY=0.5;exitDx=0;exitDy=0;entryX=0;entryY=0.5;entryDx=0;entryDy=0;curved=0;" parent="1" source="4fcKTC8SZaugYzXGXpfN-15" target="4fcKTC8SZaugYzXGXpfN-22" edge="1">
          <mxGeometry relative="1" as="geometry">
            <mxPoint x="350" y="288" as="sourcePoint" />
            <mxPoint x="450" y="225" as="targetPoint" />
          </mxGeometry>
        </mxCell>
        <mxCell id="4fcKTC8SZaugYzXGXpfN-30" style="edgeStyle=orthogonalEdgeStyle;rounded=0;orthogonalLoop=1;jettySize=auto;html=1;exitX=1;exitY=0.5;exitDx=0;exitDy=0;entryX=0;entryY=0.5;entryDx=0;entryDy=0;endArrow=none;endFill=0;" parent="1" source="4fcKTC8SZaugYzXGXpfN-31" target="4fcKTC8SZaugYzXGXpfN-32" edge="1">
          <mxGeometry relative="1" as="geometry" />
        </mxCell>
        <mxCell id="4fcKTC8SZaugYzXGXpfN-31" value="slab" style="rounded=1;whiteSpace=wrap;html=1;fillColor=#f8cecc;strokeColor=#b85450;" parent="1" vertex="1">
          <mxGeometry x="640" y="232" width="40" height="30" as="geometry" />
        </mxCell>
        <mxCell id="4fcKTC8SZaugYzXGXpfN-32" value="" style="rounded=0;whiteSpace=wrap;html=1;fillColor=#b0e3e6;strokeColor=#0e8088;" parent="1" vertex="1">
          <mxGeometry x="700" y="237.5" width="30" height="20" as="geometry" />
        </mxCell>
        <mxCell id="4fcKTC8SZaugYzXGXpfN-33" style="edgeStyle=orthogonalEdgeStyle;rounded=0;orthogonalLoop=1;jettySize=auto;html=1;exitX=1;exitY=0.5;exitDx=0;exitDy=0;entryX=0;entryY=0.5;entryDx=0;entryDy=0;endArrow=none;endFill=0;" parent="1" source="4fcKTC8SZaugYzXGXpfN-32" target="4fcKTC8SZaugYzXGXpfN-34" edge="1">
          <mxGeometry relative="1" as="geometry">
            <mxPoint x="741" y="247.5" as="sourcePoint" />
          </mxGeometry>
        </mxCell>
        <mxCell id="4fcKTC8SZaugYzXGXpfN-34" value="" style="rounded=0;whiteSpace=wrap;html=1;fillColor=#b0e3e6;strokeColor=#0e8088;" parent="1" vertex="1">
          <mxGeometry x="750" y="237" width="30" height="20" as="geometry" />
        </mxCell>
        <mxCell id="4fcKTC8SZaugYzXGXpfN-35" style="edgeStyle=orthogonalEdgeStyle;rounded=0;orthogonalLoop=1;jettySize=auto;html=1;exitX=1;exitY=0.5;exitDx=0;exitDy=0;entryX=0;entryY=0.5;entryDx=0;entryDy=0;endArrow=none;endFill=0;" parent="1" source="4fcKTC8SZaugYzXGXpfN-34" target="4fcKTC8SZaugYzXGXpfN-36" edge="1">
          <mxGeometry relative="1" as="geometry">
            <mxPoint x="799" y="247.5" as="sourcePoint" />
          </mxGeometry>
        </mxCell>
        <mxCell id="4fcKTC8SZaugYzXGXpfN-36" value="" style="rounded=0;whiteSpace=wrap;html=1;fillColor=#b0e3e6;strokeColor=#0e8088;" parent="1" vertex="1">
          <mxGeometry x="797" y="237" width="30" height="20" as="geometry" />
        </mxCell>
        <mxCell id="4fcKTC8SZaugYzXGXpfN-37" style="edgeStyle=orthogonalEdgeStyle;rounded=0;orthogonalLoop=1;jettySize=auto;html=1;exitX=0.5;exitY=1;exitDx=0;exitDy=0;entryX=0.5;entryY=0;entryDx=0;entryDy=0;endArrow=none;endFill=0;" parent="1" source="4fcKTC8SZaugYzXGXpfN-39" target="4fcKTC8SZaugYzXGXpfN-43" edge="1">
          <mxGeometry relative="1" as="geometry" />
        </mxCell>
        <mxCell id="4fcKTC8SZaugYzXGXpfN-38" style="edgeStyle=orthogonalEdgeStyle;rounded=0;orthogonalLoop=1;jettySize=auto;html=1;exitX=1;exitY=0.5;exitDx=0;exitDy=0;entryX=0;entryY=0.5;entryDx=0;entryDy=0;" parent="1" source="4fcKTC8SZaugYzXGXpfN-39" target="4fcKTC8SZaugYzXGXpfN-48" edge="1">
          <mxGeometry relative="1" as="geometry" />
        </mxCell>
        <mxCell id="4fcKTC8SZaugYzXGXpfN-39" value="slab" style="rounded=1;whiteSpace=wrap;html=1;fillColor=#f8cecc;strokeColor=#b85450;" parent="1" vertex="1">
          <mxGeometry x="640" y="280" width="40" height="30" as="geometry" />
        </mxCell>
        <mxCell id="4fcKTC8SZaugYzXGXpfN-40" style="edgeStyle=orthogonalEdgeStyle;rounded=0;orthogonalLoop=1;jettySize=auto;html=1;exitX=1;exitY=0.5;exitDx=0;exitDy=0;entryX=0;entryY=0.5;entryDx=0;entryDy=0;endArrow=none;endFill=0;" parent="1" target="4fcKTC8SZaugYzXGXpfN-41" edge="1">
          <mxGeometry relative="1" as="geometry">
            <mxPoint x="827" y="247" as="sourcePoint" />
          </mxGeometry>
        </mxCell>
        <mxCell id="4fcKTC8SZaugYzXGXpfN-41" value="..." style="rounded=0;whiteSpace=wrap;html=1;fillColor=#b0e3e6;strokeColor=#0e8088;" parent="1" vertex="1">
          <mxGeometry x="844" y="237" width="30" height="20" as="geometry" />
        </mxCell>
        <mxCell id="4fcKTC8SZaugYzXGXpfN-42" style="edgeStyle=orthogonalEdgeStyle;rounded=0;orthogonalLoop=1;jettySize=auto;html=1;exitX=0.5;exitY=1;exitDx=0;exitDy=0;entryX=0.5;entryY=0;entryDx=0;entryDy=0;endArrow=none;endFill=0;fontSize=12;fillColor=#b0e3e6;strokeColor=#0e8088;" parent="1" source="4fcKTC8SZaugYzXGXpfN-43" target="4fcKTC8SZaugYzXGXpfN-45" edge="1">
          <mxGeometry relative="1" as="geometry" />
        </mxCell>
        <mxCell id="4fcKTC8SZaugYzXGXpfN-43" value="" style="rounded=0;whiteSpace=wrap;html=1;fillColor=#b0e3e6;strokeColor=#0e8088;" parent="1" vertex="1">
          <mxGeometry x="645" y="327.5" width="30" height="20" as="geometry" />
        </mxCell>
        <mxCell id="4fcKTC8SZaugYzXGXpfN-44" style="edgeStyle=orthogonalEdgeStyle;rounded=0;orthogonalLoop=1;jettySize=auto;html=1;exitX=0.5;exitY=1;exitDx=0;exitDy=0;entryX=0.5;entryY=0;entryDx=0;entryDy=0;endArrow=none;endFill=0;fontSize=12;fillColor=#b0e3e6;strokeColor=#0e8088;" parent="1" source="4fcKTC8SZaugYzXGXpfN-45" target="4fcKTC8SZaugYzXGXpfN-46" edge="1">
          <mxGeometry relative="1" as="geometry" />
        </mxCell>
        <mxCell id="4fcKTC8SZaugYzXGXpfN-45" value="" style="rounded=0;whiteSpace=wrap;html=1;fillColor=#b0e3e6;strokeColor=#0e8088;" parent="1" vertex="1">
          <mxGeometry x="645" y="364" width="30" height="20" as="geometry" />
        </mxCell>
        <mxCell id="4fcKTC8SZaugYzXGXpfN-46" value="" style="rounded=0;whiteSpace=wrap;html=1;fillColor=#b0e3e6;strokeColor=#0e8088;" parent="1" vertex="1">
          <mxGeometry x="645" y="400" width="30" height="20" as="geometry" />
        </mxCell>
        <mxCell id="4fcKTC8SZaugYzXGXpfN-47" style="edgeStyle=orthogonalEdgeStyle;rounded=0;orthogonalLoop=1;jettySize=auto;html=1;exitX=1;exitY=0.5;exitDx=0;exitDy=0;entryX=0;entryY=0.5;entryDx=0;entryDy=0;" parent="1" source="4fcKTC8SZaugYzXGXpfN-48" target="4fcKTC8SZaugYzXGXpfN-50" edge="1">
          <mxGeometry relative="1" as="geometry" />
        </mxCell>
        <mxCell id="4fcKTC8SZaugYzXGXpfN-48" value="slab" style="rounded=1;whiteSpace=wrap;html=1;fillColor=#f8cecc;strokeColor=#b85450;" parent="1" vertex="1">
          <mxGeometry x="710" y="280" width="40" height="30" as="geometry" />
        </mxCell>
        <mxCell id="4fcKTC8SZaugYzXGXpfN-49" style="edgeStyle=orthogonalEdgeStyle;rounded=0;orthogonalLoop=1;jettySize=auto;html=1;exitX=1;exitY=0.5;exitDx=0;exitDy=0;entryX=0;entryY=0.5;entryDx=0;entryDy=0;" parent="1" source="4fcKTC8SZaugYzXGXpfN-50" target="4fcKTC8SZaugYzXGXpfN-63" edge="1">
          <mxGeometry relative="1" as="geometry" />
        </mxCell>
        <mxCell id="4fcKTC8SZaugYzXGXpfN-50" value="slab" style="rounded=1;whiteSpace=wrap;html=1;fillColor=#f8cecc;strokeColor=#b85450;" parent="1" vertex="1">
          <mxGeometry x="780" y="280" width="40" height="30" as="geometry" />
        </mxCell>
        <mxCell id="4fcKTC8SZaugYzXGXpfN-51" style="edgeStyle=orthogonalEdgeStyle;rounded=0;orthogonalLoop=1;jettySize=auto;html=1;exitX=0.5;exitY=1;exitDx=0;exitDy=0;entryX=0.5;entryY=0;entryDx=0;entryDy=0;endArrow=none;endFill=0;" parent="1" target="4fcKTC8SZaugYzXGXpfN-53" edge="1">
          <mxGeometry relative="1" as="geometry">
            <mxPoint x="730" y="310" as="sourcePoint" />
          </mxGeometry>
        </mxCell>
        <mxCell id="4fcKTC8SZaugYzXGXpfN-52" style="edgeStyle=orthogonalEdgeStyle;rounded=0;orthogonalLoop=1;jettySize=auto;html=1;exitX=0.5;exitY=1;exitDx=0;exitDy=0;entryX=0.5;entryY=0;entryDx=0;entryDy=0;endArrow=none;endFill=0;fontSize=12;fillColor=#b0e3e6;strokeColor=#0e8088;" parent="1" source="4fcKTC8SZaugYzXGXpfN-53" target="4fcKTC8SZaugYzXGXpfN-55" edge="1">
          <mxGeometry relative="1" as="geometry" />
        </mxCell>
        <mxCell id="4fcKTC8SZaugYzXGXpfN-53" value="" style="rounded=0;whiteSpace=wrap;html=1;fillColor=#b0e3e6;strokeColor=#0e8088;" parent="1" vertex="1">
          <mxGeometry x="715" y="327.5" width="30" height="20" as="geometry" />
        </mxCell>
        <mxCell id="4fcKTC8SZaugYzXGXpfN-54" style="edgeStyle=orthogonalEdgeStyle;rounded=0;orthogonalLoop=1;jettySize=auto;html=1;exitX=0.5;exitY=1;exitDx=0;exitDy=0;entryX=0.5;entryY=0;entryDx=0;entryDy=0;endArrow=none;endFill=0;fontSize=12;fillColor=#b0e3e6;strokeColor=#0e8088;" parent="1" source="4fcKTC8SZaugYzXGXpfN-55" target="4fcKTC8SZaugYzXGXpfN-56" edge="1">
          <mxGeometry relative="1" as="geometry" />
        </mxCell>
        <mxCell id="4fcKTC8SZaugYzXGXpfN-55" value="" style="rounded=0;whiteSpace=wrap;html=1;fillColor=#b0e3e6;strokeColor=#0e8088;" parent="1" vertex="1">
          <mxGeometry x="715" y="364" width="30" height="20" as="geometry" />
        </mxCell>
        <mxCell id="4fcKTC8SZaugYzXGXpfN-56" value="" style="rounded=0;whiteSpace=wrap;html=1;fillColor=#b0e3e6;strokeColor=#0e8088;" parent="1" vertex="1">
          <mxGeometry x="715" y="400" width="30" height="20" as="geometry" />
        </mxCell>
        <mxCell id="4fcKTC8SZaugYzXGXpfN-57" style="edgeStyle=orthogonalEdgeStyle;rounded=0;orthogonalLoop=1;jettySize=auto;html=1;exitX=0.5;exitY=1;exitDx=0;exitDy=0;entryX=0.5;entryY=0;entryDx=0;entryDy=0;endArrow=none;endFill=0;" parent="1" target="4fcKTC8SZaugYzXGXpfN-59" edge="1">
          <mxGeometry relative="1" as="geometry">
            <mxPoint x="800" y="310" as="sourcePoint" />
          </mxGeometry>
        </mxCell>
        <mxCell id="4fcKTC8SZaugYzXGXpfN-58" style="edgeStyle=orthogonalEdgeStyle;rounded=0;orthogonalLoop=1;jettySize=auto;html=1;exitX=0.5;exitY=1;exitDx=0;exitDy=0;entryX=0.5;entryY=0;entryDx=0;entryDy=0;endArrow=none;endFill=0;fontSize=12;fillColor=#b0e3e6;strokeColor=#0e8088;" parent="1" source="4fcKTC8SZaugYzXGXpfN-59" target="4fcKTC8SZaugYzXGXpfN-61" edge="1">
          <mxGeometry relative="1" as="geometry" />
        </mxCell>
        <mxCell id="4fcKTC8SZaugYzXGXpfN-59" value="" style="rounded=0;whiteSpace=wrap;html=1;fillColor=#b0e3e6;strokeColor=#0e8088;" parent="1" vertex="1">
          <mxGeometry x="785" y="327.5" width="30" height="20" as="geometry" />
        </mxCell>
        <mxCell id="4fcKTC8SZaugYzXGXpfN-60" style="edgeStyle=orthogonalEdgeStyle;rounded=0;orthogonalLoop=1;jettySize=auto;html=1;exitX=0.5;exitY=1;exitDx=0;exitDy=0;entryX=0.5;entryY=0;entryDx=0;entryDy=0;endArrow=none;endFill=0;fontSize=12;fillColor=#b0e3e6;strokeColor=#0e8088;" parent="1" source="4fcKTC8SZaugYzXGXpfN-61" target="4fcKTC8SZaugYzXGXpfN-62" edge="1">
          <mxGeometry relative="1" as="geometry" />
        </mxCell>
        <mxCell id="4fcKTC8SZaugYzXGXpfN-61" value="" style="rounded=0;whiteSpace=wrap;html=1;fillColor=#b0e3e6;strokeColor=#0e8088;" parent="1" vertex="1">
          <mxGeometry x="785" y="364" width="30" height="20" as="geometry" />
        </mxCell>
        <mxCell id="4fcKTC8SZaugYzXGXpfN-62" value="" style="rounded=0;whiteSpace=wrap;html=1;fillColor=#b0e3e6;strokeColor=#0e8088;" parent="1" vertex="1">
          <mxGeometry x="785" y="400" width="30" height="20" as="geometry" />
        </mxCell>
        <mxCell id="4fcKTC8SZaugYzXGXpfN-63" value="..." style="rounded=1;whiteSpace=wrap;html=1;fillColor=#f8cecc;strokeColor=#b85450;" parent="1" vertex="1">
          <mxGeometry x="844" y="280" width="40" height="30" as="geometry" />
        </mxCell>
        <mxCell id="4fcKTC8SZaugYzXGXpfN-64" value="N" style="rounded=1;whiteSpace=wrap;html=1;verticalAlign=bottom;absoluteArcSize=1;align=left;fillColor=#d5e8d4;strokeColor=#82b366;" parent="1" vertex="1">
          <mxGeometry x="360" y="440" width="155" height="125" as="geometry" />
        </mxCell>
        <mxCell id="4fcKTC8SZaugYzXGXpfN-65" value="..." style="rounded=1;whiteSpace=wrap;html=1;verticalAlign=bottom;absoluteArcSize=1;align=left;fillColor=#d5e8d4;strokeColor=#82b366;" parent="1" vertex="1">
          <mxGeometry x="370" y="450" width="155" height="125" as="geometry" />
        </mxCell>
        <mxCell id="4fcKTC8SZaugYzXGXpfN-66" value="1" style="rounded=1;whiteSpace=wrap;html=1;verticalAlign=bottom;absoluteArcSize=1;align=left;fillColor=#d5e8d4;strokeColor=#82b366;" parent="1" vertex="1">
          <mxGeometry x="382.5" y="460" width="155" height="125" as="geometry" />
        </mxCell>
        <mxCell id="4fcKTC8SZaugYzXGXpfN-67" value="kmem_cache_node" style="rounded=1;whiteSpace=wrap;html=1;verticalAlign=top;absoluteArcSize=1;fillColor=#d5e8d4;strokeColor=#82b366;" parent="1" vertex="1">
          <mxGeometry x="395" y="470" width="155" height="125" as="geometry" />
        </mxCell>
        <mxCell id="4fcKTC8SZaugYzXGXpfN-68" value="spinlock_t list_lock;" style="rounded=0;whiteSpace=wrap;html=1;" parent="1" vertex="1">
          <mxGeometry x="405" y="505" width="135" height="25" as="geometry" />
        </mxCell>
        <mxCell id="4fcKTC8SZaugYzXGXpfN-69" style="edgeStyle=orthogonalEdgeStyle;rounded=0;orthogonalLoop=1;jettySize=auto;html=1;exitX=1;exitY=0.5;exitDx=0;exitDy=0;entryX=0;entryY=0.5;entryDx=0;entryDy=0;" parent="1" source="4fcKTC8SZaugYzXGXpfN-70" target="4fcKTC8SZaugYzXGXpfN-75" edge="1">
          <mxGeometry relative="1" as="geometry" />
        </mxCell>
        <mxCell id="4fcKTC8SZaugYzXGXpfN-70" value="struct list_head partial;" style="rounded=0;whiteSpace=wrap;html=1;" parent="1" vertex="1">
          <mxGeometry x="405" y="555" width="135" height="25" as="geometry" />
        </mxCell>
        <mxCell id="4fcKTC8SZaugYzXGXpfN-71" value="unsigned long nr_partial;" style="rounded=0;whiteSpace=wrap;html=1;" parent="1" vertex="1">
          <mxGeometry x="405" y="530" width="135" height="25" as="geometry" />
        </mxCell>
        <mxCell id="4fcKTC8SZaugYzXGXpfN-72" style="edgeStyle=orthogonalEdgeStyle;rounded=1;orthogonalLoop=1;jettySize=auto;html=1;exitX=0.5;exitY=1;exitDx=0;exitDy=0;entryX=0;entryY=0.5;entryDx=0;entryDy=0;curved=0;" parent="1" source="4fcKTC8SZaugYzXGXpfN-16" target="4fcKTC8SZaugYzXGXpfN-67" edge="1">
          <mxGeometry relative="1" as="geometry">
            <mxPoint x="295" y="375" as="sourcePoint" />
            <mxPoint x="470" y="533" as="targetPoint" />
          </mxGeometry>
        </mxCell>
        <mxCell id="4fcKTC8SZaugYzXGXpfN-73" style="edgeStyle=orthogonalEdgeStyle;rounded=0;orthogonalLoop=1;jettySize=auto;html=1;exitX=0.5;exitY=1;exitDx=0;exitDy=0;entryX=0.5;entryY=0;entryDx=0;entryDy=0;endArrow=none;endFill=0;" parent="1" source="4fcKTC8SZaugYzXGXpfN-75" target="4fcKTC8SZaugYzXGXpfN-77" edge="1">
          <mxGeometry relative="1" as="geometry" />
        </mxCell>
        <mxCell id="4fcKTC8SZaugYzXGXpfN-74" style="edgeStyle=orthogonalEdgeStyle;rounded=0;orthogonalLoop=1;jettySize=auto;html=1;exitX=1;exitY=0.5;exitDx=0;exitDy=0;entryX=0;entryY=0.5;entryDx=0;entryDy=0;" parent="1" source="4fcKTC8SZaugYzXGXpfN-75" target="4fcKTC8SZaugYzXGXpfN-82" edge="1">
          <mxGeometry relative="1" as="geometry" />
        </mxCell>
        <mxCell id="4fcKTC8SZaugYzXGXpfN-75" value="slab" style="rounded=1;whiteSpace=wrap;html=1;fillColor=#f8cecc;strokeColor=#b85450;" parent="1" vertex="1">
          <mxGeometry x="600" y="552" width="40" height="30" as="geometry" />
        </mxCell>
        <mxCell id="4fcKTC8SZaugYzXGXpfN-76" style="edgeStyle=orthogonalEdgeStyle;rounded=0;orthogonalLoop=1;jettySize=auto;html=1;exitX=0.5;exitY=1;exitDx=0;exitDy=0;entryX=0.5;entryY=0;entryDx=0;entryDy=0;endArrow=none;endFill=0;fontSize=12;fillColor=#b0e3e6;strokeColor=#0e8088;" parent="1" source="4fcKTC8SZaugYzXGXpfN-77" target="4fcKTC8SZaugYzXGXpfN-79" edge="1">
          <mxGeometry relative="1" as="geometry" />
        </mxCell>
        <mxCell id="4fcKTC8SZaugYzXGXpfN-77" value="" style="rounded=0;whiteSpace=wrap;html=1;fillColor=#b0e3e6;strokeColor=#0e8088;" parent="1" vertex="1">
          <mxGeometry x="605" y="599.5" width="30" height="20" as="geometry" />
        </mxCell>
        <mxCell id="4fcKTC8SZaugYzXGXpfN-78" style="edgeStyle=orthogonalEdgeStyle;rounded=0;orthogonalLoop=1;jettySize=auto;html=1;exitX=0.5;exitY=1;exitDx=0;exitDy=0;entryX=0.5;entryY=0;entryDx=0;entryDy=0;endArrow=none;endFill=0;fontSize=12;fillColor=#b0e3e6;strokeColor=#0e8088;" parent="1" source="4fcKTC8SZaugYzXGXpfN-79" target="4fcKTC8SZaugYzXGXpfN-80" edge="1">
          <mxGeometry relative="1" as="geometry" />
        </mxCell>
        <mxCell id="4fcKTC8SZaugYzXGXpfN-79" value="" style="rounded=0;whiteSpace=wrap;html=1;fillColor=#b0e3e6;strokeColor=#0e8088;" parent="1" vertex="1">
          <mxGeometry x="605" y="636" width="30" height="20" as="geometry" />
        </mxCell>
        <mxCell id="4fcKTC8SZaugYzXGXpfN-80" value="" style="rounded=0;whiteSpace=wrap;html=1;fillColor=#b0e3e6;strokeColor=#0e8088;" parent="1" vertex="1">
          <mxGeometry x="605" y="672" width="30" height="20" as="geometry" />
        </mxCell>
        <mxCell id="4fcKTC8SZaugYzXGXpfN-81" style="edgeStyle=orthogonalEdgeStyle;rounded=0;orthogonalLoop=1;jettySize=auto;html=1;exitX=1;exitY=0.5;exitDx=0;exitDy=0;entryX=0;entryY=0.5;entryDx=0;entryDy=0;" parent="1" source="4fcKTC8SZaugYzXGXpfN-82" target="4fcKTC8SZaugYzXGXpfN-84" edge="1">
          <mxGeometry relative="1" as="geometry" />
        </mxCell>
        <mxCell id="4fcKTC8SZaugYzXGXpfN-82" value="slab" style="rounded=1;whiteSpace=wrap;html=1;fillColor=#f8cecc;strokeColor=#b85450;" parent="1" vertex="1">
          <mxGeometry x="670" y="552" width="40" height="30" as="geometry" />
        </mxCell>
        <mxCell id="4fcKTC8SZaugYzXGXpfN-83" style="edgeStyle=orthogonalEdgeStyle;rounded=0;orthogonalLoop=1;jettySize=auto;html=1;exitX=1;exitY=0.5;exitDx=0;exitDy=0;entryX=0;entryY=0.5;entryDx=0;entryDy=0;" parent="1" source="4fcKTC8SZaugYzXGXpfN-84" target="4fcKTC8SZaugYzXGXpfN-97" edge="1">
          <mxGeometry relative="1" as="geometry" />
        </mxCell>
        <mxCell id="4fcKTC8SZaugYzXGXpfN-84" value="slab" style="rounded=1;whiteSpace=wrap;html=1;fillColor=#f8cecc;strokeColor=#b85450;" parent="1" vertex="1">
          <mxGeometry x="740" y="552" width="40" height="30" as="geometry" />
        </mxCell>
        <mxCell id="4fcKTC8SZaugYzXGXpfN-85" style="edgeStyle=orthogonalEdgeStyle;rounded=0;orthogonalLoop=1;jettySize=auto;html=1;exitX=0.5;exitY=1;exitDx=0;exitDy=0;entryX=0.5;entryY=0;entryDx=0;entryDy=0;endArrow=none;endFill=0;" parent="1" target="4fcKTC8SZaugYzXGXpfN-87" edge="1">
          <mxGeometry relative="1" as="geometry">
            <mxPoint x="690" y="582" as="sourcePoint" />
          </mxGeometry>
        </mxCell>
        <mxCell id="4fcKTC8SZaugYzXGXpfN-86" style="edgeStyle=orthogonalEdgeStyle;rounded=0;orthogonalLoop=1;jettySize=auto;html=1;exitX=0.5;exitY=1;exitDx=0;exitDy=0;entryX=0.5;entryY=0;entryDx=0;entryDy=0;endArrow=none;endFill=0;fontSize=12;fillColor=#b0e3e6;strokeColor=#0e8088;" parent="1" source="4fcKTC8SZaugYzXGXpfN-87" target="4fcKTC8SZaugYzXGXpfN-89" edge="1">
          <mxGeometry relative="1" as="geometry" />
        </mxCell>
        <mxCell id="4fcKTC8SZaugYzXGXpfN-87" value="" style="rounded=0;whiteSpace=wrap;html=1;fillColor=#b0e3e6;strokeColor=#0e8088;" parent="1" vertex="1">
          <mxGeometry x="675" y="599.5" width="30" height="20" as="geometry" />
        </mxCell>
        <mxCell id="4fcKTC8SZaugYzXGXpfN-88" style="edgeStyle=orthogonalEdgeStyle;rounded=0;orthogonalLoop=1;jettySize=auto;html=1;exitX=0.5;exitY=1;exitDx=0;exitDy=0;entryX=0.5;entryY=0;entryDx=0;entryDy=0;endArrow=none;endFill=0;fontSize=12;fillColor=#b0e3e6;strokeColor=#0e8088;" parent="1" source="4fcKTC8SZaugYzXGXpfN-89" target="4fcKTC8SZaugYzXGXpfN-90" edge="1">
          <mxGeometry relative="1" as="geometry" />
        </mxCell>
        <mxCell id="4fcKTC8SZaugYzXGXpfN-89" value="" style="rounded=0;whiteSpace=wrap;html=1;fillColor=#b0e3e6;strokeColor=#0e8088;" parent="1" vertex="1">
          <mxGeometry x="675" y="636" width="30" height="20" as="geometry" />
        </mxCell>
        <mxCell id="4fcKTC8SZaugYzXGXpfN-90" value="" style="rounded=0;whiteSpace=wrap;html=1;fillColor=#b0e3e6;strokeColor=#0e8088;" parent="1" vertex="1">
          <mxGeometry x="675" y="672" width="30" height="20" as="geometry" />
        </mxCell>
        <mxCell id="4fcKTC8SZaugYzXGXpfN-91" style="edgeStyle=orthogonalEdgeStyle;rounded=0;orthogonalLoop=1;jettySize=auto;html=1;exitX=0.5;exitY=1;exitDx=0;exitDy=0;entryX=0.5;entryY=0;entryDx=0;entryDy=0;endArrow=none;endFill=0;" parent="1" target="4fcKTC8SZaugYzXGXpfN-93" edge="1">
          <mxGeometry relative="1" as="geometry">
            <mxPoint x="760" y="582" as="sourcePoint" />
          </mxGeometry>
        </mxCell>
        <mxCell id="4fcKTC8SZaugYzXGXpfN-92" style="edgeStyle=orthogonalEdgeStyle;rounded=0;orthogonalLoop=1;jettySize=auto;html=1;exitX=0.5;exitY=1;exitDx=0;exitDy=0;entryX=0.5;entryY=0;entryDx=0;entryDy=0;endArrow=none;endFill=0;fontSize=12;fillColor=#b0e3e6;strokeColor=#0e8088;" parent="1" source="4fcKTC8SZaugYzXGXpfN-93" target="4fcKTC8SZaugYzXGXpfN-95" edge="1">
          <mxGeometry relative="1" as="geometry" />
        </mxCell>
        <mxCell id="4fcKTC8SZaugYzXGXpfN-93" value="" style="rounded=0;whiteSpace=wrap;html=1;fillColor=#b0e3e6;strokeColor=#0e8088;" parent="1" vertex="1">
          <mxGeometry x="745" y="599.5" width="30" height="20" as="geometry" />
        </mxCell>
        <mxCell id="4fcKTC8SZaugYzXGXpfN-94" style="edgeStyle=orthogonalEdgeStyle;rounded=0;orthogonalLoop=1;jettySize=auto;html=1;exitX=0.5;exitY=1;exitDx=0;exitDy=0;entryX=0.5;entryY=0;entryDx=0;entryDy=0;endArrow=none;endFill=0;fontSize=12;fillColor=#b0e3e6;strokeColor=#0e8088;" parent="1" source="4fcKTC8SZaugYzXGXpfN-95" target="4fcKTC8SZaugYzXGXpfN-96" edge="1">
          <mxGeometry relative="1" as="geometry" />
        </mxCell>
        <mxCell id="4fcKTC8SZaugYzXGXpfN-95" value="" style="rounded=0;whiteSpace=wrap;html=1;fillColor=#b0e3e6;strokeColor=#0e8088;" parent="1" vertex="1">
          <mxGeometry x="745" y="636" width="30" height="20" as="geometry" />
        </mxCell>
        <mxCell id="4fcKTC8SZaugYzXGXpfN-96" value="" style="rounded=0;whiteSpace=wrap;html=1;fillColor=#b0e3e6;strokeColor=#0e8088;" parent="1" vertex="1">
          <mxGeometry x="745" y="672" width="30" height="20" as="geometry" />
        </mxCell>
        <mxCell id="4fcKTC8SZaugYzXGXpfN-97" value="..." style="rounded=1;whiteSpace=wrap;html=1;fillColor=#f8cecc;strokeColor=#b85450;" parent="1" vertex="1">
          <mxGeometry x="804" y="552" width="40" height="30" as="geometry" />
        </mxCell>
        <mxCell id="EmYgbR11QaFPEdpHVyXq-1" value="" style="rounded=0;whiteSpace=wrap;html=1;fontFamily=Helvetica;fontSize=11;fontColor=default;strokeWidth=0;" vertex="1" parent="1">
          <mxGeometry y="760" width="720" height="200" as="geometry" />
        </mxCell>
        <mxCell id="EmYgbR11QaFPEdpHVyXq-2" value="" style="rounded=1;whiteSpace=wrap;html=1;fontFamily=Helvetica;fontSize=11;fillColor=#d5e8d4;strokeColor=#82b366;" vertex="1" parent="1">
          <mxGeometry x="200" y="830" width="159" height="30" as="geometry" />
        </mxCell>
        <mxCell id="EmYgbR11QaFPEdpHVyXq-3" value="内置式对象" style="text;html=1;align=center;verticalAlign=middle;resizable=0;points=[];autosize=1;strokeColor=none;fillColor=none;fontSize=11;fontFamily=Helvetica;fontColor=default;" vertex="1" parent="1">
          <mxGeometry x="81" y="788" width="80" height="30" as="geometry" />
        </mxCell>
        <mxCell id="EmYgbR11QaFPEdpHVyXq-4" value="void *" style="rounded=1;whiteSpace=wrap;html=1;fontFamily=Helvetica;fontSize=11;fillColor=#ffe6cc;strokeColor=#d79b00;" vertex="1" parent="1">
          <mxGeometry x="200" y="830" width="39" height="30" as="geometry" />
        </mxCell>
        <mxCell id="EmYgbR11QaFPEdpHVyXq-5" value="" style="rounded=1;whiteSpace=wrap;html=1;fontFamily=Helvetica;fontSize=11;fillColor=#eeeeee;strokeColor=#36393d;" vertex="1" parent="1">
          <mxGeometry x="359" y="830" width="39" height="30" as="geometry" />
        </mxCell>
        <mxCell id="EmYgbR11QaFPEdpHVyXq-6" value="" style="rounded=1;whiteSpace=wrap;html=1;fontFamily=Helvetica;fontSize=11;fillColor=#eeeeee;strokeColor=#36393d;" vertex="1" parent="1">
          <mxGeometry x="398" y="830" width="41" height="30" as="geometry" />
        </mxCell>
        <mxCell id="EmYgbR11QaFPEdpHVyXq-7" value="" style="shape=curlyBracket;whiteSpace=wrap;html=1;rounded=1;labelPosition=left;verticalLabelPosition=middle;align=right;verticalAlign=middle;fontFamily=Helvetica;fontSize=11;fontColor=default;direction=north;" vertex="1" parent="1">
          <mxGeometry x="200" y="860" width="159" height="20" as="geometry" />
        </mxCell>
        <mxCell id="EmYgbR11QaFPEdpHVyXq-8" value="object" style="text;html=1;align=center;verticalAlign=middle;resizable=0;points=[];autosize=1;strokeColor=none;fillColor=none;fontSize=11;fontFamily=Helvetica;fontColor=default;" vertex="1" parent="1">
          <mxGeometry x="254.5" y="870" width="50" height="30" as="geometry" />
        </mxCell>
        <mxCell id="EmYgbR11QaFPEdpHVyXq-9" value="" style="shape=curlyBracket;whiteSpace=wrap;html=1;rounded=1;labelPosition=left;verticalLabelPosition=middle;align=right;verticalAlign=middle;fontFamily=Helvetica;fontSize=11;fontColor=default;direction=north;" vertex="1" parent="1">
          <mxGeometry x="359" y="860" width="40" height="20" as="geometry" />
        </mxCell>
        <mxCell id="EmYgbR11QaFPEdpHVyXq-10" value="word&lt;br&gt;align" style="text;html=1;align=center;verticalAlign=middle;resizable=0;points=[];autosize=1;strokeColor=none;fillColor=none;fontSize=11;fontFamily=Helvetica;fontColor=default;" vertex="1" parent="1">
          <mxGeometry x="354" y="870" width="50" height="40" as="geometry" />
        </mxCell>
        <mxCell id="EmYgbR11QaFPEdpHVyXq-11" value="" style="shape=curlyBracket;whiteSpace=wrap;html=1;rounded=1;labelPosition=left;verticalLabelPosition=middle;align=right;verticalAlign=middle;fontFamily=Helvetica;fontSize=11;fontColor=default;direction=north;" vertex="1" parent="1">
          <mxGeometry x="399" y="860" width="40" height="20" as="geometry" />
        </mxCell>
        <mxCell id="EmYgbR11QaFPEdpHVyXq-12" value="object&lt;br&gt;align" style="text;html=1;align=center;verticalAlign=middle;resizable=0;points=[];autosize=1;strokeColor=none;fillColor=none;fontSize=11;fontFamily=Helvetica;fontColor=default;" vertex="1" parent="1">
          <mxGeometry x="394" y="870" width="50" height="40" as="geometry" />
        </mxCell>
        <mxCell id="EmYgbR11QaFPEdpHVyXq-13" style="edgeStyle=orthogonalEdgeStyle;shape=connector;rounded=1;orthogonalLoop=1;jettySize=auto;html=1;entryX=0.5;entryY=0;entryDx=0;entryDy=0;labelBackgroundColor=default;strokeColor=default;align=center;verticalAlign=middle;fontFamily=Helvetica;fontSize=11;fontColor=default;endArrow=classic;" edge="1" parent="1" source="EmYgbR11QaFPEdpHVyXq-14" target="EmYgbR11QaFPEdpHVyXq-4">
          <mxGeometry relative="1" as="geometry" />
        </mxCell>
        <mxCell id="EmYgbR11QaFPEdpHVyXq-14" value="空闲链表指针" style="text;html=1;align=center;verticalAlign=middle;resizable=0;points=[];autosize=1;strokeColor=none;fillColor=none;fontSize=11;fontFamily=Helvetica;fontColor=default;" vertex="1" parent="1">
          <mxGeometry x="174.5" y="780" width="90" height="30" as="geometry" />
        </mxCell>
        <mxCell id="EmYgbR11QaFPEdpHVyXq-15" value="" style="shape=curlyBracket;whiteSpace=wrap;html=1;rounded=1;labelPosition=left;verticalLabelPosition=middle;align=right;verticalAlign=middle;fontFamily=Helvetica;fontSize=11;fontColor=default;direction=north;" vertex="1" parent="1">
          <mxGeometry x="200" y="900" width="239" height="20" as="geometry" />
        </mxCell>
        <mxCell id="EmYgbR11QaFPEdpHVyXq-16" value="slab object" style="text;html=1;align=center;verticalAlign=middle;resizable=0;points=[];autosize=1;strokeColor=none;fillColor=none;fontSize=11;fontFamily=Helvetica;fontColor=default;" vertex="1" parent="1">
          <mxGeometry x="279" y="910" width="80" height="30" as="geometry" />
        </mxCell>
        <mxCell id="EmYgbR11QaFPEdpHVyXq-17" value="" style="rounded=0;whiteSpace=wrap;html=1;fontFamily=Helvetica;fontSize=11;fontColor=default;strokeWidth=0;" vertex="1" parent="1">
          <mxGeometry y="1000" width="720" height="200" as="geometry" />
        </mxCell>
        <mxCell id="EmYgbR11QaFPEdpHVyXq-18" value="" style="rounded=1;whiteSpace=wrap;html=1;fontFamily=Helvetica;fontSize=11;fillColor=#d5e8d4;strokeColor=#82b366;" vertex="1" parent="1">
          <mxGeometry x="201" y="1070" width="159" height="30" as="geometry" />
        </mxCell>
        <mxCell id="EmYgbR11QaFPEdpHVyXq-19" value="外置式对象" style="text;html=1;align=center;verticalAlign=middle;resizable=0;points=[];autosize=1;strokeColor=none;fillColor=none;fontSize=11;fontFamily=Helvetica;fontColor=default;" vertex="1" parent="1">
          <mxGeometry x="81" y="1020" width="80" height="30" as="geometry" />
        </mxCell>
        <mxCell id="EmYgbR11QaFPEdpHVyXq-20" value="void *" style="rounded=1;whiteSpace=wrap;html=1;fontFamily=Helvetica;fontSize=11;fillColor=#ffe6cc;strokeColor=#d79b00;" vertex="1" parent="1">
          <mxGeometry x="399" y="1070" width="39" height="30" as="geometry" />
        </mxCell>
        <mxCell id="EmYgbR11QaFPEdpHVyXq-21" value="" style="rounded=1;whiteSpace=wrap;html=1;fontFamily=Helvetica;fontSize=11;fontColor=#333333;fillColor=#f5f5f5;strokeColor=#666666;" vertex="1" parent="1">
          <mxGeometry x="360" y="1070" width="39" height="30" as="geometry" />
        </mxCell>
        <mxCell id="EmYgbR11QaFPEdpHVyXq-22" value="" style="rounded=1;whiteSpace=wrap;html=1;fontFamily=Helvetica;fontSize=11;fontColor=#333333;fillColor=#f5f5f5;strokeColor=#666666;" vertex="1" parent="1">
          <mxGeometry x="438" y="1070" width="41" height="30" as="geometry" />
        </mxCell>
        <mxCell id="EmYgbR11QaFPEdpHVyXq-23" value="" style="shape=curlyBracket;whiteSpace=wrap;html=1;rounded=1;labelPosition=left;verticalLabelPosition=middle;align=right;verticalAlign=middle;fontFamily=Helvetica;fontSize=11;fontColor=default;direction=north;" vertex="1" parent="1">
          <mxGeometry x="201" y="1100" width="159" height="20" as="geometry" />
        </mxCell>
        <mxCell id="EmYgbR11QaFPEdpHVyXq-24" value="object" style="text;html=1;align=center;verticalAlign=middle;resizable=0;points=[];autosize=1;strokeColor=none;fillColor=none;fontSize=11;fontFamily=Helvetica;fontColor=default;" vertex="1" parent="1">
          <mxGeometry x="255.5" y="1110" width="50" height="30" as="geometry" />
        </mxCell>
        <mxCell id="EmYgbR11QaFPEdpHVyXq-25" value="" style="shape=curlyBracket;whiteSpace=wrap;html=1;rounded=1;labelPosition=left;verticalLabelPosition=middle;align=right;verticalAlign=middle;fontFamily=Helvetica;fontSize=11;fontColor=default;direction=north;" vertex="1" parent="1">
          <mxGeometry x="360" y="1100" width="40" height="20" as="geometry" />
        </mxCell>
        <mxCell id="EmYgbR11QaFPEdpHVyXq-26" value="word&lt;br&gt;align" style="text;html=1;align=center;verticalAlign=middle;resizable=0;points=[];autosize=1;strokeColor=none;fillColor=none;fontSize=11;fontFamily=Helvetica;fontColor=default;" vertex="1" parent="1">
          <mxGeometry x="355" y="1110" width="50" height="40" as="geometry" />
        </mxCell>
        <mxCell id="EmYgbR11QaFPEdpHVyXq-27" value="" style="shape=curlyBracket;whiteSpace=wrap;html=1;rounded=1;labelPosition=left;verticalLabelPosition=middle;align=right;verticalAlign=middle;fontFamily=Helvetica;fontSize=11;fontColor=default;direction=north;" vertex="1" parent="1">
          <mxGeometry x="439" y="1100" width="40" height="20" as="geometry" />
        </mxCell>
        <mxCell id="EmYgbR11QaFPEdpHVyXq-28" value="object&lt;br&gt;align" style="text;html=1;align=center;verticalAlign=middle;resizable=0;points=[];autosize=1;strokeColor=none;fillColor=none;fontSize=11;fontFamily=Helvetica;fontColor=default;" vertex="1" parent="1">
          <mxGeometry x="434" y="1110" width="50" height="40" as="geometry" />
        </mxCell>
        <mxCell id="EmYgbR11QaFPEdpHVyXq-29" style="edgeStyle=orthogonalEdgeStyle;shape=connector;rounded=1;orthogonalLoop=1;jettySize=auto;html=1;entryX=0.5;entryY=0;entryDx=0;entryDy=0;labelBackgroundColor=default;strokeColor=default;align=center;verticalAlign=middle;fontFamily=Helvetica;fontSize=11;fontColor=default;endArrow=classic;" edge="1" parent="1" target="EmYgbR11QaFPEdpHVyXq-20">
          <mxGeometry relative="1" as="geometry">
            <mxPoint x="418.5" y="1055" as="sourcePoint" />
          </mxGeometry>
        </mxCell>
        <mxCell id="EmYgbR11QaFPEdpHVyXq-30" value="空闲链表指针" style="text;html=1;align=center;verticalAlign=middle;resizable=0;points=[];autosize=1;strokeColor=none;fillColor=none;fontSize=11;fontFamily=Helvetica;fontColor=default;" vertex="1" parent="1">
          <mxGeometry x="372.5" y="1025" width="90" height="30" as="geometry" />
        </mxCell>
        <mxCell id="EmYgbR11QaFPEdpHVyXq-31" value="" style="shape=curlyBracket;whiteSpace=wrap;html=1;rounded=1;labelPosition=left;verticalLabelPosition=middle;align=right;verticalAlign=middle;fontFamily=Helvetica;fontSize=11;fontColor=default;direction=north;" vertex="1" parent="1">
          <mxGeometry x="201" y="1140" width="279" height="20" as="geometry" />
        </mxCell>
        <mxCell id="EmYgbR11QaFPEdpHVyXq-32" value="slab object" style="text;html=1;align=center;verticalAlign=middle;resizable=0;points=[];autosize=1;strokeColor=none;fillColor=none;fontSize=11;fontFamily=Helvetica;fontColor=default;" vertex="1" parent="1">
          <mxGeometry x="300" y="1150" width="80" height="30" as="geometry" />
        </mxCell>
      </root>
    </mxGraphModel>
  </diagram>
</mxfile>
